<?xml version="1.0" standalone="no"?>
<!DOCTYPE svg PUBLIC "-//W3C//DTD SVG 1.1//EN" "http://www.w3.org/Graphics/SVG/1.1/DTD/svg11.dtd" >
<svg xmlns="http://www.w3.org/2000/svg" xmlns:xlink="http://www.w3.org/1999/xlink" version="1.1">
<metadata></metadata>
<defs>
<font id="scheherazaderegular" horiz-adv-x="772" >
<font-face units-per-em="2048" ascent="1638" descent="-410" />
<missing-glyph horiz-adv-x="512" />
<glyph horiz-adv-x="0" />
<glyph unicode="&#xd;" horiz-adv-x="0" />
<glyph unicode=" "  horiz-adv-x="512" />
<glyph unicode="&#x09;" horiz-adv-x="512" />
<glyph unicode="&#xa0;" horiz-adv-x="512" />
<glyph unicode="!" horiz-adv-x="555" d="M190 14q0 18 7 34t18.5 28t27 19t33.5 7q38 0 63.5 -25.5t25.5 -62.5q0 -18 -7 -33.5t-19 -27t-28 -18.5t-35 -7q-18 0 -33.5 7t-27 18.5t-18.5 27t-7 33.5zM193 838q0 71 24 107t59 36q38 0 62 -36t24 -107q0 -66 -9.5 -133t-24.5 -150q-6 -34 -10.5 -56.5t-8 -42 t-5.5 -40.5t-3 -51.5t-1.5 -76t-0.5 -114.5q0 -5 -7 -8t-15 -3t-14.5 3t-6.5 8q0 69 -0.5 114.5t-1.5 76t-3 51.5t-5.5 40.5t-8 42t-10.5 56.5q-15 83 -24.5 150t-9.5 133z" />
<glyph unicode="&#x22;" horiz-adv-x="629" d="M100 954q0 39 16.5 64.5t59.5 25.5q35 0 55.5 -22.5t20.5 -56.5t-8 -84.5t-18.5 -103t-20.5 -99t-15 -72.5h-30q-8 39 -18.5 82.5t-19.5 89t-15.5 90.5t-6.5 86zM375 954q0 41 17 65.5t61 24.5q35 0 55 -22.5t20 -56.5q0 -44 -6 -89.5t-14.5 -91.5t-18.5 -91t-18 -87h-37 q-6 34 -16 78.5t-19.5 92t-16.5 93.5t-7 84z" />
<glyph unicode="#" d="M27 322v63h141l53 258h-194v59h209l69 342h60l-66 -342h254l72 342h63l-72 -342h129v-59h-139l-53 -258h192v-63h-206l-70 -345h-61l69 345h-256l-71 -345h-64l70 345h-129zM231 385h258l54 258h-258z" />
<glyph unicode="$" d="M82 39v213h33q8 -106 69 -160t164 -63v438q-49 31 -96.5 64t-85 71.5t-61 85.5t-23.5 107q0 56 22.5 100t59.5 75t85 48.5t99 21.5v70h49v-70q34 -2 65 -8t61 -15.5t60 -20.5t62 -23v-225h-29q-9 103 -60.5 166.5t-158.5 74.5v-383q45 -32 97 -67.5t96.5 -77.5t74 -93 t29.5 -114q0 -62 -25 -111.5t-66 -85t-94.5 -56t-111.5 -24.5v-94h-49v94q-68 4 -135.5 19t-130.5 43zM199 842q0 -35 13.5 -64.5t35 -55t48 -46.5t52.5 -37v350q-32 -5 -59 -15t-47 -27.5t-31.5 -43.5t-11.5 -61zM397 29q38 2 70.5 17.5t56.5 41t37.5 58.5t13.5 71 q0 36 -16.5 67t-42.5 57.5t-57.5 49.5t-61.5 43v-405z" />
<glyph unicode="%" horiz-adv-x="1335" d="M117 659q0 63 27.5 128t74 118.5t106.5 87t126 33.5q40 0 66.5 -13t51.5 -29t54 -29t75 -13q70 0 130 25t104 82h74l-598 -1072h-74l540 971q-46 -20 -93 -30.5t-97 -10.5q-20 0 -39.5 2.5t-38.5 10.5q0 -22 6 -42.5t6 -41.5q0 -40 -11 -85t-31 -88t-49 -82.5t-64 -69.5 t-76 -47.5t-86 -17.5q-51 0 -86 16t-56.5 44t-31.5 67t-10 86zM236 614q0 -49 21 -81.5t75 -32.5q38 0 71 17.5t60.5 46.5t49 66t36 77t22 79t7.5 72q0 16 -5.5 36t-7.5 36q-11 3 -26.5 11.5l-31 17t-29.5 15.5t-21 7q-19 0 -38.5 -11t-36.5 -27.5t-32 -34.5t-25 -31 q-43 -57 -66 -123.5t-23 -139.5zM719 190q0 42 12.5 85.5t35.5 84t54 75.5t68.5 61.5t79.5 41.5t86 15q35 0 65 -13.5t52 -36.5t34.5 -54t12.5 -66q0 -42 -9 -88t-27 -91t-44 -86t-59.5 -72.5t-75 -50t-89.5 -18.5q-104 0 -150 56.5t-46 156.5zM836 133q0 -49 22.5 -78.5 t73.5 -29.5q37 0 70 17t60.5 45.5t49.5 65t37 75.5t23 77t8 70q0 24 -7 47t-20.5 41t-34 29.5t-47.5 11.5q-35 0 -66 -19t-57.5 -50.5t-47 -71.5t-35 -81t-22 -80t-7.5 -69z" />
<glyph unicode="&#x26;" horiz-adv-x="1202" d="M57 203q0 65 29.5 120.5t75 101.5t101 82.5t108.5 63.5q-25 51 -44.5 110t-19.5 116t20 103t55 78t83 49t104 17q42 0 79 -12t65 -35t44.5 -57t16.5 -78q0 -53 -23.5 -94.5t-60 -74t-80.5 -57.5t-84 -46q45 -82 94.5 -159.5t106.5 -151.5q21 26 44.5 57.5t42.5 66 t31.5 71t12.5 71.5q0 15 -4.5 30t-13.5 27t-22.5 19.5t-31.5 7.5v28h318v-28q-9 0 -21 -2t-25 -5t-25.5 -8.5t-22.5 -13.5q-12 -10 -26 -28t-27 -38.5t-24.5 -40.5t-19.5 -34q-33 -60 -70.5 -116t-80.5 -110q21 -23 46 -48t54 -45.5t60.5 -34t64.5 -13.5q57 0 91 28.5 t48 82.5l27 -19q-9 -44 -29 -82.5t-49 -66.5t-67.5 -44t-85.5 -16q-40 0 -77 12.5t-70.5 33.5t-63.5 47.5t-56 54.5q-37 -32 -73.5 -59.5t-75.5 -47t-83 -30.5t-95 -11t-99.5 14.5t-86.5 43t-61.5 71.5t-23.5 99zM213 270q0 -41 13.5 -78t38.5 -64.5t60 -43.5t78 -16 q30 0 58.5 8.5t55.5 22.5t52 31.5t47 35.5q-65 88 -118.5 173t-104.5 181q-36 -20 -68.5 -45t-57.5 -56t-39.5 -68t-14.5 -81zM436 856q0 -26 6 -54.5t15 -56.5t20.5 -55t22.5 -51q35 16 68.5 37.5t59.5 49t42 62t16 76.5q0 25 -8 48.5t-23.5 40.5t-37 27.5t-48.5 10.5 q-28 0 -52.5 -10.5t-42.5 -28.5t-28 -43t-10 -53z" />
<glyph unicode="'" horiz-adv-x="279" d="M63 954q0 47 19.5 68.5t54.5 21.5t54.5 -21.5t19.5 -68.5q0 -17 -4 -47.5t-12 -77.5l-41 -223h-33l-41 223q-8 45 -12.5 76.5t-4.5 48.5z" />
<glyph unicode="(" horiz-adv-x="547" d="M76 246q0 77 15 140.5t40.5 117.5t59.5 99.5t72 85.5q28 30 59.5 58t62.5 51.5t58 40.5t46 25l13 -12q-65 -63 -114.5 -122.5t-84.5 -127.5q-18 -34 -35.5 -72.5t-31.5 -82.5t-22.5 -94t-8.5 -107q0 -58 8.5 -108.5t22.5 -95t31.5 -83t35.5 -72.5q35 -68 84.5 -126 t114.5 -123l-13 -13q-19 9 -46 26t-58 40t-62.5 51t-59.5 58q-38 40 -72 86t-59.5 100.5t-40.5 118.5t-15 141z" />
<glyph unicode=")" horiz-adv-x="547" d="M43 -362q65 65 114.5 123t85.5 126q18 34 35.5 72.5t31 83t22 95t8.5 108.5q0 57 -8.5 107t-22 94t-31 82.5t-35.5 72.5q-36 68 -85.5 127.5t-114.5 122.5l12 12q19 -8 46.5 -25t58 -40t62.5 -51t61 -58q38 -41 72 -86.5t59.5 -99.5t40 -117.5t14.5 -140.5t-14.5 -141 t-40 -118.5t-59.5 -100.5t-72 -87q-29 -30 -61 -57.5t-62.5 -50.5t-58 -40t-46.5 -26z" />
<glyph unicode="*" horiz-adv-x="688" d="M12 238q0 17 19.5 30t62.5 13q21 0 52.5 -5.5t61 -12.5t50.5 -14t21 -11t-21 -11.5t-50.5 -14.5t-61 -12t-52.5 -5q-43 0 -62.5 13t-19.5 30zM100 26q0 13 8 29t28 36q14 14 38.5 31.5t49 32.5t45 25.5t26.5 10.5q2 0 2 -3q0 -5 -10 -25t-25 -45t-32 -49t-31 -38 q-20 -20 -36.5 -28t-29.5 -8t-23 8.5t-10 22.5zM100 449q0 13 9.5 22t23.5 9q13 0 29.5 -8t36.5 -28q14 -14 31 -38t32 -49t25 -45t10 -25q0 -3 -2 -3q-6 0 -26.5 10.5t-45 25.5t-49 32.5t-38.5 31.5q-20 19 -28 35.5t-8 29.5zM299 -12q0 21 5.5 52t13 60.5t15 50.5t11.5 21 q3 0 10 -21t14.5 -50.5t13 -60.5t5.5 -52q0 -44 -13 -63t-30 -19t-31 19t-14 63zM299 487q0 44 14 63t31 19t30 -19t13 -63q0 -21 -5.5 -52t-13 -60.5t-14.5 -50.5t-10 -21q-4 0 -11.5 21t-15 50.5t-13 60.5t-5.5 52zM390 188q0 3 3 3q6 0 26.5 -10.5t45 -25.5t48.5 -32 t38 -31q20 -20 28 -36t8 -29q0 -14 -9 -23t-24 -9q-13 0 -29.5 8t-35.5 28q-14 14 -31 38t-32 48.5t-25.5 44.5t-10.5 26zM390 287q0 6 10.5 26t25.5 45t32 48.5t31 37.5q19 20 35.5 28t29.5 8t23 -8t10 -23q0 -13 -8 -29.5t-28 -36.5q-14 -14 -38 -31t-48.5 -32t-45 -25.5 t-26.5 -10.5q-3 0 -3 3zM410 238q0 4 20.5 11t50 14t61 12.5t52.5 5.5q42 0 62 -13t20 -30t-20 -30t-62 -13q-21 0 -52.5 5t-61 12t-50 14.5t-20.5 11.5z" />
<glyph unicode="+" horiz-adv-x="915" d="M37 389v64h387v387h61v-387h387v-64h-387v-385h-61v385h-387z" />
<glyph unicode="," horiz-adv-x="387" d="M84 61q0 39 28.5 64t67.5 25q31 0 54.5 -13.5t39.5 -36t24.5 -50.5t8.5 -58q0 -174 -223 -250v35q31 8 60.5 26.5t52 44.5t36 57t13.5 64q0 31 -17 31q-6 0 -12.5 -3.5t-14.5 -8t-17.5 -8t-20.5 -3.5q-36 0 -58 21t-22 63z" />
<glyph unicode="-" horiz-adv-x="514" d="M61 238v114h390v-114h-390z" />
<glyph unicode="." horiz-adv-x="641" d="M250 66q0 18 7 33.5t18.5 27t27 18.5t33.5 7q19 0 35 -7t28 -18.5t19 -27t7 -33.5q0 -38 -25.5 -63.5t-63.5 -25.5q-18 0 -33.5 7t-27 19t-18.5 28t-7 35z" />
<glyph unicode="/" horiz-adv-x="543" d="M66 -260l350 1505h63l-352 -1505h-61z" />
<glyph unicode="0" d="M55 506q0 49 7.5 108t23.5 118.5t42 116t63 100t86 69.5t112 26q62 0 110.5 -25.5t85 -67t61.5 -96t41 -113t23 -116t7 -106.5q0 -51 -7 -110.5t-23 -119t-41.5 -115.5t-63 -98.5t-87.5 -68.5t-114 -26q-60 0 -108 25.5t-84 67.5t-61.5 96.5t-41.5 113t-23.5 116 t-7.5 105.5zM203 487q0 -29 1.5 -74t7.5 -95.5t17.5 -102t32 -92.5t50.5 -66.5t73 -25.5q45 0 76.5 29.5t52 76t31.5 104.5t16.5 115t6.5 107t1 82q0 29 -1.5 74t-7.5 95t-17.5 100t-31.5 90.5t-50.5 65.5t-73.5 25q-44 0 -74.5 -29.5t-51 -76.5t-32.5 -105t-17.5 -114.5 t-7 -105t-1.5 -77.5z" />
<glyph unicode="1" d="M180 922l250 122h27v-864q0 -44 2 -73t14 -46.5t37.5 -24.5t73.5 -7v-29h-385v29q49 0 76 6.5t39.5 23.5t15 46.5t2.5 74.5v576q0 35 -1.5 65t-7.5 52.5t-18.5 35.5t-34.5 13q-20 0 -40 -7.5t-37 -15.5z" />
<glyph unicode="2" d="M35 0v29q47 43 101 94t107.5 106.5t103 115t87 120t60 121t22.5 119.5q0 44 -14 84.5t-40 71t-63 49t-84 18.5q-88 0 -142.5 -46t-82.5 -126h-27q8 61 29.5 114t57.5 91.5t87 60.5t117 22q58 0 110.5 -19.5t92.5 -55t64 -85t24 -110.5q0 -57 -20 -113.5t-51.5 -110 t-70.5 -101.5t-76 -88q-57 -62 -114 -125.5t-118 -120.5h266q43 0 75 2t57 10t46 24.5t41 45.5h29l-74 -197h-600z" />
<glyph unicode="3" d="M63 63q0 23 19 38.5t41 15.5q24 0 48.5 -11t51 -24t55.5 -24t64 -11q40 0 75 16.5t60.5 44t40 63.5t14.5 75q0 67 -23 116t-63 80.5t-94 47t-116 16.5v24q46 6 87.5 25.5t73.5 50.5t51 72.5t19 89.5q0 37 -12 68.5t-34 54.5t-53 36t-69 13q-65 0 -112.5 -35.5 t-82.5 -89.5l-26 12q22 46 47 85.5t57 69t74 46t98 16.5q46 0 89 -13.5t76 -40t53 -65t20 -89.5q0 -35 -12.5 -67t-32 -61t-44 -54.5t-48.5 -47.5q93 -34 141.5 -101t48.5 -167q0 -89 -32 -155.5t-87.5 -111t-129 -67t-156.5 -22.5q-20 0 -50.5 2t-58.5 10t-48 24t-20 45z " />
<glyph unicode="4" d="M25 270v95l475 679h82v-667h135v-107h-135v-270h-125v270h-432zM98 377h359v508z" />
<glyph unicode="5" d="M74 82q0 29 15.5 42t43.5 13q23 0 45 -12t45.5 -27t50.5 -27t60 -12q47 0 87.5 18.5t70 50t46.5 73t17 88.5q0 89 -41.5 151.5t-106.5 102.5t-144 59.5t-154 22.5l196 397h365l-58 -129h-307l-69 -135q77 -8 152 -38.5t134 -80.5t95 -118t36 -152q0 -82 -33 -153 t-88.5 -123t-128.5 -81.5t-153 -29.5q-23 0 -53.5 4t-57.5 14.5t-46 30t-19 51.5z" />
<glyph unicode="6" d="M68 401q0 78 20 156t57 149.5t89.5 133t117 107t139.5 71.5t158 26h43v-28q-93 -6 -168.5 -44.5t-132.5 -100t-96 -139.5t-59 -163q49 34 104 55t115 21q62 0 110 -25.5t81 -68t50 -96.5t17 -111q0 -69 -23 -134t-66 -116t-103 -81.5t-134 -30.5q-81 0 -141 39t-99.5 100 t-59 135t-19.5 145zM209 352q0 -29 5 -64.5t15 -72t26 -70.5t38 -61t51 -43t66 -16q46 0 78 23t52 58t29 76.5t9 79.5q0 46 -8.5 101.5t-30.5 103.5t-60.5 80.5t-97.5 32.5q-18 0 -39.5 -6.5t-42.5 -16t-41 -21t-35 -20.5q-5 -42 -9.5 -82.5t-4.5 -81.5z" />
<glyph unicode="7" d="M57 780l99 242h544v-27l-340 -1018h-81l305 922h-281q-45 0 -77.5 -5t-58 -19t-46.5 -38t-43 -63z" />
<glyph unicode="8" d="M92 233q0 45 19.5 86t49.5 76.5t66 65t70 53.5q-43 36 -78.5 68.5t-61 65.5t-39.5 70t-14 83q0 58 24 103.5t63.5 76.5t90.5 47t105 16q48 0 97 -13.5t88.5 -41.5t64.5 -69.5t25 -96.5q0 -45 -20.5 -83t-51.5 -69.5t-68 -57t-71 -46.5q45 -35 87 -71t74.5 -75t52 -83.5 t19.5 -95.5q0 -65 -24 -113.5t-65 -81t-95 -49t-113 -16.5q-54 0 -107 17t-95 49.5t-67.5 79t-25.5 105.5zM209 236q0 -43 12 -81.5t35.5 -67t58.5 -45.5t82 -17q36 0 68 10t56.5 29.5t39 48.5t14.5 67q0 42 -18 79.5t-50.5 74.5t-77 74.5t-97.5 78.5q-57 -49 -90 -111.5 t-33 -139.5zM215 850q0 -39 17.5 -73t46 -65t64.5 -60t73 -56q31 29 56.5 55t43.5 53t27.5 58t9.5 69q0 168 -166 168q-34 0 -65 -9.5t-55 -28.5t-38 -46.5t-14 -64.5z" />
<glyph unicode="9" d="M61 678q0 67 22 133t63.5 117.5t100.5 83.5t134 32q81 0 141.5 -39.5t101 -100.5t61 -136t20.5 -145q0 -78 -20 -156t-57 -150t-89.5 -134t-116.5 -108t-139.5 -72t-157.5 -26h-43v29q92 2 167 40.5t132 101t96 141.5t60 162q-48 -32 -102.5 -55t-112.5 -23 q-63 0 -111.5 25.5t-82 68.5t-50.5 97.5t-17 113.5zM197 756q0 -43 8 -98t29 -103.5t57 -81.5t92 -33q16 0 40 5t49 14t46 21t31 26q5 38 9.5 76.5t4.5 79.5q0 29 -4.5 65t-14 73t-25 72t-38 62.5t-52 44t-67.5 16.5q-47 0 -78.5 -23.5t-50.5 -58.5t-27.5 -77.5t-8.5 -79.5z " />
<glyph unicode=":" horiz-adv-x="641" d="M215 14q0 37 25.5 62.5t62.5 25.5q18 0 33.5 -7t27 -19t18.5 -28t7 -34t-7 -33.5t-18.5 -27t-27 -18.5t-33.5 -7t-34 7t-28 18.5t-19 27t-7 33.5zM215 487q0 38 25.5 63t62.5 25q18 0 33.5 -6.5t27 -18.5t18.5 -28t7 -35q0 -18 -7 -34t-18.5 -28t-27 -19t-33.5 -7 q-37 0 -62.5 25.5t-25.5 62.5z" />
<glyph unicode=";" horiz-adv-x="430" d="M129 61q0 39 28.5 64t67.5 25q31 0 54.5 -13.5t39.5 -36t24.5 -50.5t8.5 -58q0 -174 -223 -250v35q31 8 60.5 26.5t52 44.5t36 57t13.5 64q0 31 -17 31q-6 0 -12.5 -3.5t-14.5 -8t-17.5 -8t-20.5 -3.5q-36 0 -58 21t-22 63zM153 631q0 36 24.5 60t59.5 24q34 0 58 -24 t24 -60q0 -18 -6.5 -33t-17.5 -26.5t-26 -18t-32 -6.5q-35 0 -59.5 24.5t-24.5 59.5z" />
<glyph unicode="&#x3c;" horiz-adv-x="1485" d="M297 399v93l891 342v-93l-797 -295l797 -296v-93z" />
<glyph unicode="=" horiz-adv-x="915" d="M37 276v64h835v-64h-835zM37 502v63h835v-63h-835z" />
<glyph unicode="&#x3e;" horiz-adv-x="1485" d="M297 57v93l797 296l-797 295v93l891 -342v-93z" />
<glyph unicode="?" horiz-adv-x="686" d="M70 829q0 56 24 96.5t62.5 67t87 39t98.5 12.5q55 0 106 -14t90.5 -43t63 -74t23.5 -106q0 -57 -20 -102.5t-50.5 -86.5t-66.5 -80t-67.5 -83t-53.5 -96.5t-25 -118.5h-31q3 91 29.5 172.5t72.5 159.5q30 51 50 107t20 118q0 40 -10.5 77t-32 66t-54 46.5t-77.5 17.5 q-21 0 -46 -5.5t-46.5 -17.5t-36 -31t-14.5 -45q0 -15 7.5 -33t16 -35.5t16 -34t7.5 -28.5q0 -25 -16.5 -44t-42.5 -19q-23 0 -38.5 11.5t-26 29t-15 38.5t-4.5 39zM246 63q0 18 7 34t19 27.5t27.5 18.5t32.5 7q35 0 59.5 -25.5t24.5 -61.5q0 -35 -24.5 -59t-59.5 -24 t-60.5 23t-25.5 60z" />
<glyph unicode="@" horiz-adv-x="1423" d="M74 336q0 153 53 286.5t147.5 233.5t225 157.5t286.5 57.5q118 0 217 -35.5t170.5 -102t111.5 -162t40 -216.5q0 -61 -11.5 -123.5t-34.5 -121.5t-58 -111t-81 -90.5t-104 -61t-127 -22.5q-55 0 -84.5 26t-29.5 82q0 26 3.5 52.5t8.5 52.5q-24 -29 -58 -65.5t-74 -69.5 t-82.5 -55.5t-82.5 -22.5q-35 0 -60.5 15.5t-42 40.5t-24.5 55.5t-8 60.5q0 49 15.5 107.5t43.5 117t66.5 114t84 98t97.5 68t106 25.5q109 0 132 -104l22 82l119 18q-4 -12 -17 -55.5t-30.5 -103t-37 -127.5t-36 -129.5t-27 -109t-10.5 -65.5q0 -23 17.5 -39t40.5 -16 q32 0 61 11t54.5 29.5t47.5 42t41 47.5q60 78 86.5 171t26.5 190q0 107 -37.5 193t-103 146.5t-154.5 93t-192 32.5q-99 0 -186 -27.5t-159 -76t-128.5 -116t-95 -147.5t-59 -169.5t-20.5 -182.5q0 -133 42.5 -243.5t120 -190t186.5 -124t243 -44.5q106 0 198.5 29.5 t169 83.5t136.5 131t102 172h43q-29 -107 -95 -192.5t-154.5 -145.5t-193 -92.5t-210.5 -32.5q-144 0 -264.5 51.5t-207.5 141.5t-136 212.5t-49 264.5zM494 221q0 -18 5.5 -37t16.5 -34.5t27 -25t37 -9.5q42 0 81.5 23.5t74 62t63 87.5t49 99.5t32 98t11.5 83.5q0 24 -4 46 t-14.5 39.5t-29 27.5t-46.5 10q-37 0 -74.5 -25.5t-71 -67t-62.5 -93t-50 -104t-33 -100.5t-12 -81z" />
<glyph unicode="A" horiz-adv-x="1110" d="M12 0v29q36 2 61 16.5t44 38t33.5 54t29.5 65.5l361 841h26l355 -847q15 -35 28.5 -64.5t32.5 -52t46 -36t69 -15.5v-29h-404v29q17 0 35 2.5t33 9.5t25 19.5t10 33.5q0 20 -12 56t-27 74t-30 71t-21 47h-396q-4 -8 -12.5 -26.5t-19.5 -42t-22 -49.5t-20.5 -51t-15.5 -46 t-6 -33q0 -20 13 -32.5t32 -19.5t39 -9.5t35 -3.5v-29h-322zM334 397h352l-174 416z" />
<glyph unicode="B" horiz-adv-x="1004" d="M27 0v29q48 0 76.5 6.5t43.5 23t20 46t5 75.5v662q0 48 -4 77.5t-19 46.5t-44 23t-78 6v27h440q46 0 96.5 -4t98.5 -14.5t91 -29.5t75.5 -49.5t51.5 -74t19 -102.5q0 -43 -14.5 -79t-39.5 -64.5t-59 -49.5t-73 -33q51 -9 93 -27.5t73 -48t48 -71t17 -96.5 q0 -60 -19 -104.5t-52 -75.5t-76.5 -50.5t-92 -30t-99 -14.5t-97.5 -4h-481zM317 74q44 -10 87 -15.5t88 -5.5q51 0 100.5 11.5t89 37t64 66.5t24.5 100q0 66 -29 110.5t-74.5 71.5t-102.5 38.5t-113 11.5q-32 0 -66.5 -0.5t-67.5 -5.5v-420zM317 563q36 -8 72.5 -9t71.5 -1 q53 0 103 8.5t89 31.5t62.5 62t23.5 101q0 60 -25.5 101t-66 66.5t-91 36.5t-101.5 11q-35 0 -69.5 -3.5t-68.5 -11.5v-393z" />
<glyph unicode="C" horiz-adv-x="1030" d="M55 496q0 114 37.5 213.5t106 174t164 117.5t212.5 43q39 0 72.5 -5.5t65 -14.5t62 -21.5t65.5 -27.5q15 0 26 7t18 17t11.5 22t7.5 23h27l22 -346h-22q-19 64 -48.5 117.5t-71 92.5t-97 61t-125.5 22t-123.5 -20.5t-94 -56.5t-68 -84t-44 -103.5t-24 -115t-7.5 -117.5 q0 -92 22 -173.5t68.5 -143.5t119 -98t173.5 -36q64 0 112.5 15t88 42.5t73 67t68.5 88.5l23 -16q-69 -125 -173.5 -195t-248.5 -70q-114 0 -206 40t-157 110t-100 165t-35 206z" />
<glyph unicode="D" horiz-adv-x="1114" d="M27 0v29q48 0 76.5 6t43.5 22.5t20 46t5 76.5v662q0 48 -4 78t-19 46.5t-44 22.5t-78 6v27h415q129 0 241 -24t194.5 -82.5t130 -155.5t47.5 -244q0 -130 -43.5 -226.5t-120 -161t-181 -96.5t-227.5 -32h-456zM317 74q39 -10 79.5 -16.5t80.5 -6.5q100 0 176 36.5 t127.5 99t78 146t26.5 177.5t-26.5 177t-79 145t-129.5 97.5t-177 35.5q-40 0 -78.5 -6t-77.5 -17v-868z" />
<glyph unicode="E" horiz-adv-x="942" d="M33 0v29q48 0 76.5 6t43.5 22.5t20 46t5 76.5v666q0 48 -4 77t-19 45t-44 21.5t-78 5.5v27h786l12 -223h-28q-13 49 -24.5 81.5t-31 51.5t-53 27t-90.5 8h-282v-404h225q47 0 75.5 6.5t46 23t26 45t14.5 73.5h28v-357h-28q-6 45 -14.5 74t-25.5 46.5t-45.5 24.5t-76.5 7 h-225v-336q0 -30 1.5 -51.5t10 -35.5t25.5 -21t49 -7h172q67 0 110 11t74.5 35t56.5 62.5t56 92.5h32l-90 -256h-786z" />
<glyph unicode="F" horiz-adv-x="858" d="M25 0v29q49 0 78 6.5t44 23t19 46t4 75.5v662q0 46 -4.5 75.5t-19.5 47t-44 24t-77 6.5v27h761l11 -223h-27q-15 50 -33 82.5t-44 51.5t-62.5 26.5t-87.5 7.5h-228v-402h187q37 0 61 9t38.5 27t21.5 44t12 60h29v-347h-29q0 73 -28.5 108.5t-104.5 35.5h-187v-322 q0 -47 4.5 -76.5t20 -46t45 -22.5t78.5 -6v-29h-438z" />
<glyph unicode="G" horiz-adv-x="1114" d="M53 496q0 114 41.5 214t114.5 174.5t172.5 117t214.5 42.5q58 0 107.5 -10t87 -21.5t61 -21.5t31.5 -10q10 0 17.5 7.5t12 17.5t6.5 20.5t3 17.5h26l27 -321h-27q-20 61 -50 111t-71 85.5t-95 54.5t-122 19q-100 0 -172 -39t-119 -104t-69.5 -149t-22.5 -173t23.5 -178 t72 -160.5t122.5 -116t176 -44.5q55 0 108.5 13.5t101.5 41.5v297q0 42 -4 70t-18 45t-40 24.5t-71 9.5v27h396v-27q-42 0 -65 -10t-34 -29t-13.5 -47t-2.5 -63v-313q-82 -48 -173.5 -70.5t-187.5 -22.5q-117 0 -220 35t-179.5 101.5t-121 163.5t-44.5 221z" />
<glyph unicode="H" horiz-adv-x="1114" d="M27 0v29q49 0 78 6t44 22.5t19 46t4 76.5v662q0 47 -4.5 76.5t-19.5 46.5t-44 23.5t-77 6.5v27h438v-27q-48 0 -77 -6.5t-45.5 -23.5t-22 -46.5t-5.5 -76.5v-293h478v293q0 47 -5 76.5t-20.5 46.5t-45 23.5t-77.5 6.5v27h438v-27q-45 0 -73 -5.5t-44 -20.5t-21.5 -42.5 t-5.5 -72.5v-684q0 -46 5.5 -74t21.5 -43t44 -19.5t73 -4.5v-29h-438v29q48 0 77.5 6.5t45 23t20.5 46t5 75.5v314h-478v-314q0 -47 5 -76.5t21 -46t45.5 -22.5t78.5 -6v-29h-438z" />
<glyph unicode="I" horiz-adv-x="514" d="M39 0v29q49 0 78 6.5t44 23t19 46t4 75.5v662q0 47 -4 76.5t-19 46.5t-44 23.5t-78 6.5v27h438v-27q-48 0 -77 -6.5t-44.5 -23.5t-20.5 -46.5t-5 -76.5v-662q0 -46 4.5 -75.5t19.5 -46t44 -23t79 -6.5v-29h-438z" />
<glyph unicode="J" horiz-adv-x="602" d="M33 92q0 78 76 78q31 0 49 -21.5t31 -48t25 -48t32 -21.5t31 12.5t16.5 30t6.5 36.5t1 33v699q0 46 -4.5 75.5t-19.5 47t-44 24t-79 6.5v27h438v-27q-49 0 -78 -6.5t-44 -23.5t-19.5 -46.5t-4.5 -76.5v-500q0 -64 -12 -129t-42 -118t-80.5 -86.5t-127.5 -33.5 q-26 0 -53 6.5t-48.5 21t-35.5 36.5t-14 53z" />
<glyph unicode="K" horiz-adv-x="1114" d="M27 0v29q49 0 77.5 6t43 22.5t18.5 46t4 76.5v662q0 46 -4 75.5t-18.5 47t-43 24t-77.5 6.5v27h434v-27q-47 0 -75.5 -6.5t-44.5 -23.5t-21 -46.5t-5 -76.5v-322q98 92 172.5 162.5t124 122.5t74.5 88t25 59q0 15 -7.5 23.5t-20 13t-29.5 5.5t-36 1v27h377v-27 q-40 0 -76.5 -15t-79 -47.5t-95.5 -84t-126 -124.5l-157 -157l379 -374q33 -33 64.5 -61t65 -49.5t72 -35.5t86.5 -18v-29h-487v29q13 0 28 2t27.5 7.5t20.5 15.5t8 26q0 8 -6.5 19.5t-16 23t-19 21.5t-15.5 16l-308 307l-45 -45v-242q0 -47 4.5 -76.5t20 -46t44.5 -22.5 t77 -6v-29h-434z" />
<glyph unicode="L" horiz-adv-x="942" d="M29 0v29q36 0 64 4.5t46.5 18t28.5 38.5t10 66v710q0 40 -10 65t-28.5 38.5t-46.5 18.5t-64 5v29h444v-29q-37 0 -65 -5t-47 -18.5t-29 -38.5t-10 -65v-673q0 -38 6 -62.5t20.5 -39t39.5 -20t63 -5.5h102q74 0 124 8.5t86.5 32t64.5 66t57 110.5l26 -4l-88 -279h-794z " />
<glyph unicode="M" horiz-adv-x="1374" d="M27 0v29q48 0 76 6t43 22.5t19.5 45.5t4.5 75v668q0 41 -6.5 69.5t-22.5 46t-43.5 25.5t-70.5 8v27h288l371 -799l365 799h290v-27q-48 0 -77 -6t-44 -22.5t-19.5 -45.5t-4.5 -75v-668q0 -47 5 -76t20 -45.5t43.5 -22t76.5 -5.5v-29h-436v29q48 0 76.5 6t44 22.5 t20.5 45.5t5 75v682l-396 -860h-24l-395 860v-682q0 -47 5 -76t20 -45.5t43.5 -22t76.5 -5.5v-29h-354z" />
<glyph unicode="N" horiz-adv-x="1114" d="M8 995v27h250l625 -766v590q0 46 -5 75t-20.5 45.5t-44 22.5t-76.5 6v27h357v-27q-48 0 -77 -6t-44.5 -22.5t-20 -45.5t-4.5 -75v-862h-26l-676 823v-629q0 -48 4.5 -77t19.5 -45t44 -21.5t77 -5.5v-29h-356v29q48 0 76.5 6t43.5 22.5t20 45.5t5 75v711 q-19 26 -35.5 45.5t-35 33t-43 20.5t-58.5 7z" />
<glyph unicode="O" horiz-adv-x="1114" d="M53 514q0 111 37.5 207.5t105.5 168t162 113t207 41.5q111 0 201 -42.5t154.5 -115t99.5 -168.5t35 -202q0 -109 -36 -207t-101.5 -172.5t-158 -118t-206.5 -43.5t-206.5 43t-158 116.5t-100.5 171.5t-35 208zM227 518q0 -51 6 -107t21 -110t39 -103t60 -86t85 -59 t113 -22q67 0 117.5 20t87.5 54.5t61.5 81t39 99t20.5 109t6 111.5q0 56 -5.5 114t-19.5 112t-38 101t-61 82t-89 55.5t-121 20.5q-64 0 -112.5 -20.5t-84.5 -55.5t-60 -82t-38.5 -99.5t-20.5 -108t-6 -107.5z" />
<glyph unicode="P" horiz-adv-x="860" d="M27 0v29q48 0 76.5 6t43.5 22.5t19 46t4 76.5v662q0 48 -4 77.5t-18.5 46.5t-43 23t-77.5 6v27h372q69 0 141.5 -12t131 -43.5t96 -86.5t37.5 -141q0 -83 -28.5 -137.5t-77.5 -86.5t-114.5 -45t-138.5 -13q-32 0 -64.5 2t-66.5 6v-285q0 -47 5.5 -76.5t21 -46t44.5 -22.5 t77 -6v-29h-436zM315 516q31 -5 62 -7.5t63 -2.5q45 0 80.5 18.5t60.5 49t38.5 70t13.5 81.5q0 49 -14.5 92.5t-42 75.5t-68 51t-92.5 19q-25 0 -50.5 -5t-50.5 -10v-432z" />
<glyph unicode="Q" horiz-adv-x="1114" d="M53 512q0 111 37 208t104.5 169t161 113.5t207.5 41.5q112 0 203 -43t155 -116.5t99 -170t35 -204.5q0 -91 -26 -173.5t-74.5 -150.5t-118 -118.5t-156.5 -77.5q31 -53 69 -99.5t83.5 -82.5t100 -58.5t118.5 -28.5v-24q-83 4 -171 27.5t-172 62t-158.5 90.5t-129.5 113 q-186 65 -276.5 195.5t-90.5 326.5zM227 512q0 -52 6 -108t21 -109.5t39.5 -101.5t60.5 -84.5t85 -58t114 -21.5q97 0 161 42t101.5 108.5t52.5 149t15 163.5q0 54 -6 111.5t-20.5 113t-39 105t-61 86.5t-87 59t-116.5 22t-115.5 -20.5t-85.5 -56t-60 -82.5t-38.5 -100 t-20.5 -109t-6 -109z" />
<glyph unicode="R" horiz-adv-x="1030" d="M27 0v29q49 0 78 6t44 22.5t19 46t4 76.5v662q0 48 -4 77.5t-19 46.5t-44 23t-78 6v27h385q44 0 92 -3t93.5 -13t86.5 -27.5t72 -47t49 -71.5t18 -100q0 -59 -19 -103t-52.5 -75.5t-79.5 -52t-99 -31.5l209 -295q28 -39 54 -69t56 -52t66.5 -35.5t85.5 -17.5v-29h-274 l-346 477q-29 -3 -60 -3q-13 0 -25 0.5t-24 1.5v-296q0 -47 5.5 -76.5t21.5 -46t45.5 -22.5t77.5 -6v-29h-438zM315 528q7 -1 18.5 -1.5t24.5 -0.5q55 0 108 11t95 36.5t68 68t26 106.5q0 49 -16 89t-45.5 68.5t-70 44t-89.5 15.5q-29 0 -58.5 -4t-60.5 -9v-424z" />
<glyph unicode="S" horiz-adv-x="858" d="M98 776q0 63 24.5 112.5t65.5 84t94.5 53t112.5 18.5q34 0 69 -9t66.5 -19.5t57.5 -19.5t43 -9q12 0 20 6t14 14.5t9.5 18.5t5.5 18h29v-352h-29q-5 60 -26 113.5t-56.5 93t-86 63t-114.5 23.5q-34 0 -66 -11t-57.5 -31.5t-41 -49t-15.5 -64.5q0 -42 24 -76t63.5 -63 t89.5 -55.5t102.5 -54t102.5 -58.5t89.5 -69t63.5 -84.5t24 -106.5q0 -67 -27 -120t-71.5 -90t-102.5 -57t-120 -20q-41 0 -82 9.5t-77.5 20.5t-66.5 20.5t-49 9.5q-12 0 -20.5 -5.5t-14 -14.5t-8.5 -19.5t-4 -20.5h-27v353h27q8 -65 31 -119t61 -92.5t91.5 -60t121.5 -21.5 q37 0 73.5 10.5t65 31.5t46.5 52.5t18 73.5q0 44 -23.5 79.5t-61.5 66t-87 58t-99.5 55.5t-99.5 59t-87 68.5t-61.5 83t-23.5 103.5z" />
<glyph unicode="T" horiz-adv-x="940" d="M37 782l10 240h848l10 -240h-33q-9 87 -53 131.5t-135 44.5h-143v-780q0 -47 4 -76t19 -45.5t43.5 -22t76.5 -5.5v-29h-432v29q48 0 76 6t43 22.5t19.5 45.5t4.5 75v780h-123q-48 0 -84 -8.5t-60.5 -28.5t-38 -54t-17.5 -85h-35z" />
<glyph unicode="U" horiz-adv-x="1114" d="M23 995v27h411v-27q-44 0 -70 -8t-40 -26.5t-18.5 -47.5t-4.5 -71v-447q0 -71 9.5 -135.5t38 -113t81 -77t137.5 -28.5q69 0 132 22t114 70q25 23 39 60.5t21 79t8.5 82.5t1.5 73v414q0 48 -4.5 77.5t-20 46.5t-44.5 23t-77 6v27h363v-27q-46 0 -75 -8.5t-45 -27t-22 -49 t-6 -74.5v-416q0 -105 -19.5 -187.5t-65 -139.5t-121.5 -87.5t-189 -30.5q-125 0 -203.5 31t-122.5 90.5t-59.5 146t-15.5 197.5v402q0 42 -4 71t-17.5 47.5t-40 26.5t-71.5 8z" />
<glyph unicode="V" horiz-adv-x="1114" d="M14 995v27h416v-27q-16 -1 -35.5 -4t-37 -10.5t-29 -21t-11.5 -35.5q0 -28 10 -55t25 -62l260 -598l242 594q4 10 10.5 25.5t11.5 32t9 32t4 27.5q0 20 -11.5 33t-28 21.5t-35.5 13t-34 7.5v27h316v-27q-32 -5 -56 -18t-42 -32t-31 -43.5t-25 -53.5l-356 -873h-27 l-383 883q-14 32 -27 56t-30.5 41t-42.5 26.5t-62 13.5z" />
<glyph unicode="W" horiz-adv-x="1458" d="M20 995v27h377v-27q-15 0 -32.5 -2t-32 -8t-24 -18t-9.5 -33q0 -12 3.5 -28t9 -33t11 -33t9.5 -27l200 -575l170 489q-13 48 -29.5 96t-39 86t-53.5 62t-74 24v27h399v-27q-19 0 -38.5 -1t-35 -7.5t-25 -20t-9.5 -38.5q0 -31 11 -68.5t21 -64.5l197 -557l195 565 q4 12 9.5 28t10 33t7.5 33.5t3 28.5q0 22 -10.5 35.5t-27 21t-35.5 10t-37 2.5v27h303v-27q-29 0 -50.5 -9.5t-38 -27t-29.5 -42.5t-23 -56l-302 -885h-32l-232 654l-231 -654h-29l-301 850q-12 33 -22 64t-26 54.5t-41 37.5t-67 14z" />
<glyph unicode="X" horiz-adv-x="1114" d="M10 0v29q30 0 61 11.5t61 31t57.5 45t50.5 53.5l266 334l-203 295q-27 39 -53.5 73.5t-58 60.5t-69.5 42.5t-89 19.5v27h473v-27q-14 -1 -32.5 -3.5t-35 -8.5t-28 -17.5t-11.5 -29.5q0 -14 13 -40.5t32.5 -59t43 -67.5t45 -65.5t38 -53t21.5 -29.5q4 5 23 27t44.5 53 t54 67t52.5 69.5t39.5 61t15.5 41.5q0 18 -12.5 29t-30.5 16.5t-36.5 7t-30.5 2.5v27h362v-27q-35 -2 -62 -10.5t-52 -25.5t-50 -43.5t-55 -64.5l-225 -284l250 -371q26 -39 51 -69.5t50.5 -51.5t54 -33t61.5 -13v-29h-439v29q14 0 32 1.5t33.5 7.5t26.5 17.5t11 30.5 q0 12 -16 42.5t-40 70t-52.5 82.5t-53 80t-42 62t-19.5 28l-215 -275q-6 -8 -14 -19t-15 -23t-12 -24.5t-5 -23.5q0 -18 10 -29.5t25 -17.5t32 -8t32 -2v-29h-365z" />
<glyph unicode="Y" horiz-adv-x="1114" d="M14 995v27h437v-27q-16 0 -36.5 -2t-38.5 -8.5t-30 -20t-12 -36.5q0 -15 18.5 -51.5t47 -83t61.5 -97t61.5 -93t48 -71.5t21.5 -32l203 315q6 10 14 23t15 27.5t11.5 29.5t4.5 27q0 21 -10 35t-25 22.5t-33 12t-35 3.5v27h357v-27q-38 0 -66 -10t-51 -28.5t-43 -44.5 t-41 -59l-268 -419v-256q0 -47 5 -76t20 -45.5t43.5 -22t76.5 -5.5v-29h-434v29q48 0 76 6t42.5 22.5t18.5 45.5t4 75v242l-278 428q-16 25 -34.5 51t-40.5 47.5t-49 35t-61 13.5z" />
<glyph unicode="Z" horiz-adv-x="942" d="M20 0v29l654 934h-326q-57 0 -93.5 -10.5t-59 -33.5t-35 -61t-21.5 -92h-28l22 256h756l-672 -961h418q58 0 97.5 14.5t66 42t44.5 67t34 89.5l22 -4l-47 -270h-832z" />
<glyph unicode="[" horiz-adv-x="690" d="M193 -201v1248l276 40l14 -79l-188 -29v-1110l188 -31l-14 -80z" />
<glyph unicode="\" horiz-adv-x="430" d="M2 1071h66l366 -1094h-61z" />
<glyph unicode="]" horiz-adv-x="690" d="M188 -168l193 31v1112l-193 31l19 79l276 -41v-1249l-276 -41z" />
<glyph unicode="^" horiz-adv-x="1485" d="M354 14l342 891h92l342 -891h-92l-295 797l-297 -797h-92z" />
<glyph unicode="_" horiz-adv-x="743" d="M0 -119h743v-55h-743v55z" />
<glyph unicode="`" horiz-adv-x="580" d="M86 993q0 58 47 58q40 0 90 -50l215 -215h-63l-221 140q-68 42 -68 67z" />
<glyph unicode="a" horiz-adv-x="686" d="M55 164q0 42 19.5 77t51.5 64t73 52.5t84 42t84 32.5t73 25v28q0 35 -4.5 67.5t-18.5 58t-39 40.5t-67 15q-35 0 -55 -9.5t-30.5 -27t-13.5 -41t-3 -51.5q0 -34 -13 -53t-51 -19q-35 0 -49 20t-14 52q0 47 25 80t62.5 54t81.5 30.5t83 9.5q65 0 109.5 -12.5t71.5 -41 t38.5 -73.5t11.5 -109v-235v-32t0.5 -33.5t1 -31t2.5 -24.5q2 -14 9 -25.5t24 -11.5q8 0 20 7.5t24 17.5t22.5 20t15.5 16v-43q-14 -19 -31.5 -39.5t-38 -37t-44.5 -27t-50 -10.5q-24 0 -39.5 10t-24.5 26.5t-12.5 36.5t-3.5 41l-50 -40t-52 -36.5t-56 -27t-63 -10.5 q-39 0 -69.5 13.5t-51.5 37.5t-32 56.5t-11 70.5zM182 199q0 -23 7 -45t21 -40t33.5 -29t45.5 -11q20 0 40 7t39.5 18.5t38 25t33.5 25.5v264q-38 -14 -83 -34t-84 -46.5t-65 -60t-26 -74.5z" />
<glyph unicode="b" d="M-6 989l209 82h35v-500q19 27 42.5 52t50.5 44.5t58 31.5t66 12q68 0 118 -30.5t82.5 -79t48 -108.5t15.5 -120q0 -76 -25.5 -147.5t-72 -126.5t-112.5 -88.5t-147 -33.5q-69 0 -132.5 26t-118.5 65v732q0 44 -1 76.5t-6.5 54t-16.5 32t-30 10.5q-14 0 -26.5 -3.5 t-26.5 -6.5zM238 111q32 -34 73.5 -55t89.5 -21q53 0 89 30t57.5 75t31 96.5t9.5 93.5q0 43 -10 91.5t-33.5 89t-60.5 67t-91 26.5q-22 0 -43.5 -7t-41 -18.5t-37.5 -25.5t-33 -29v-413z" />
<glyph unicode="c" horiz-adv-x="686" d="M51 344q0 72 23 138.5t66 117.5t104 81t137 30q34 0 75.5 -10.5t76.5 -31.5t59 -52t24 -72q0 -34 -19.5 -49t-51.5 -15q-34 0 -50 13.5t-23 33.5t-10 43.5t-12.5 43.5t-30.5 33.5t-63 13.5q-50 0 -84.5 -23.5t-55.5 -60.5t-30.5 -81.5t-9.5 -86.5q0 -51 12 -106t39 -101 t69.5 -75.5t102.5 -29.5q42 0 75 14t58.5 38t45 55.5t34.5 66.5l23 -10q-9 -54 -33 -105t-61.5 -91t-87 -64.5t-107.5 -24.5q-75 0 -130.5 32.5t-92 85t-54.5 118t-18 131.5z" />
<glyph unicode="d" d="M51 315q0 72 23 142.5t66.5 127t106 91.5t140.5 35q42 0 80.5 -13.5t69.5 -44.5v224q0 45 -12.5 70.5t-41.5 25.5q-14 0 -26.5 -2.5t-26.5 -7.5l-10 26l209 82h33v-859q0 -30 1.5 -54.5t7 -42t16.5 -27.5t30 -10q12 0 25.5 3.5t27.5 8.5l8 -27l-209 -86h-32v101 q-42 -44 -92.5 -72.5t-110.5 -28.5q-68 0 -120.5 30t-88.5 78.5t-55 109t-19 120.5zM190 377q0 -48 11 -103t35.5 -102.5t65 -79t99.5 -31.5q41 0 75.5 20.5t60.5 49.5v356q0 32 -12 64t-33.5 57.5t-51 41.5t-63.5 16q-54 0 -90 -29t-57.5 -72.5t-30.5 -94t-9 -93.5z" />
<glyph unicode="e" horiz-adv-x="686" d="M57 338q0 75 19.5 142.5t59 118.5t100 81.5t141.5 30.5q62 0 111 -21t83 -58.5t52 -89t18 -112.5h-477q0 -56 15 -114t46 -105.5t78.5 -78t112.5 -30.5q40 0 71.5 12.5t56 35t42.5 53t32 65.5l23 -16q-8 -54 -31.5 -103.5t-60.5 -87.5t-85.5 -61t-105.5 -23 q-74 0 -130.5 31t-94.5 82t-57 115.5t-19 132.5zM164 473h319q0 34 -8.5 67.5t-27 59t-46.5 41.5t-67 16t-69 -15.5t-51.5 -41t-34 -59t-15.5 -68.5z" />
<glyph unicode="f" horiz-adv-x="514" d="M57 635v55h136v47q0 66 18 126.5t54 106.5t90 73.5t126 27.5q25 0 58.5 -8.5t62.5 -25t49.5 -40.5t20.5 -55q0 -11 -5.5 -22t-14 -19.5t-19.5 -14t-23 -5.5q-25 0 -44 21t-39 46.5t-44.5 46.5t-60.5 21q-37 0 -58 -21t-31.5 -55.5t-13 -80.5t-2.5 -95v-74h179v-55h-179 v-453q0 -52 5.5 -82.5t22.5 -46t48.5 -20t83.5 -4.5v-29h-416v29q45 0 71 8.5t39.5 27t17.5 47.5t4 70v453h-136z" />
<glyph unicode="g" d="M45 -190q0 21 16.5 49.5t39 56t46 52t37.5 38.5q-10 6 -22 15t-23 20t-18.5 23.5t-7.5 25.5q0 21 13 44.5t32 45.5t39.5 41t35.5 31q-30 14 -54.5 36t-41.5 49.5t-26 59t-9 64.5q0 58 22.5 104.5t60.5 78.5t87.5 49.5t104.5 17.5q33 0 64.5 -8.5t62.5 -18.5t62 -18.5 t63 -8.5q20 0 40 2.5t40 2.5t27 -4t7 -29q0 -24 -19 -31.5t-44 -7.5q-20 0 -40 1.5t-34 2.5q22 -29 31.5 -65.5t9.5 -71.5q0 -58 -22.5 -101.5t-60.5 -73t-87 -44.5t-102 -15q-26 0 -52.5 3.5t-52.5 11.5q-20 -16 -38.5 -37t-18.5 -47q0 -23 22.5 -33t59 -14t83.5 -4t96 -2 t96 -9t83.5 -24.5t59 -48.5t22.5 -82q0 -46 -18 -84t-48 -68.5t-69.5 -52.5t-82.5 -37t-87 -22t-82 -7q-19 0 -49.5 3.5t-64 11t-67.5 19t-61 27.5t-44 36.5t-17 46.5zM154 -133q0 -23 15 -40t38.5 -29t53 -20t58.5 -12.5t54.5 -6t42.5 -1.5q34 0 79.5 6.5t86.5 23.5 t69.5 46t28.5 74q0 15 -6.5 26t-17 18.5t-24 12.5t-26.5 8q-29 7 -79 11t-105.5 6.5t-108.5 4.5t-88 5q-11 -12 -23 -27.5t-23 -33t-18 -36t-7 -36.5zM233 494q0 -36 6.5 -77t24 -76t47 -58t74.5 -23q39 0 64 15t39.5 40t20 56.5t5.5 64.5q0 35 -6.5 76.5t-23.5 77.5t-46 60 t-73 24q-38 0 -63.5 -16.5t-40.5 -42t-21.5 -58t-6.5 -63.5z" />
<glyph unicode="h" d="M8 989l209 82h35v-504q20 30 44 56t52.5 45.5t61.5 31t71 11.5q66 0 102.5 -30.5t54 -76.5t21 -101t3.5 -104v-258q0 -32 3.5 -53t14.5 -34.5t31 -19t53 -5.5v-29h-340v29q34 0 55.5 5t34 17.5t17 34t4.5 55.5v271q0 39 -2.5 76t-13.5 66t-33 46.5t-62 17.5 q-26 0 -50 -8.5t-46 -22t-41 -31.5t-35 -36v-379q0 -35 3.5 -56.5t15.5 -34t33.5 -17t57.5 -4.5v-29h-342v29q33 0 54 5.5t33 19t16 34.5t4 53v729q0 48 -9 76.5t-42 28.5q-14 0 -28 -3.5t-28 -8.5z" />
<glyph unicode="i" horiz-adv-x="430" d="M47 627l209 84h33v-570q0 -33 4 -54.5t15.5 -34.5t32 -18t54.5 -5v-29h-338v29q34 0 55 5t32.5 18t15.5 34.5t4 54.5v369q0 17 -1.5 35t-7 33t-16 24.5t-28.5 9.5q-12 0 -26 -3.5t-28 -8.5zM150 926q0 32 22.5 53.5t54.5 21.5q31 0 53.5 -22t22.5 -53q0 -32 -22 -55 t-54 -23t-54.5 22t-22.5 56z" />
<glyph unicode="j" horiz-adv-x="430" d="M-119 -258q0 26 18 45.5t44 19.5t45.5 -12.5t36 -27t33 -27t36.5 -12.5q25 0 39.5 17t21 44t8 61t1.5 68v544q0 31 -1.5 58.5t-6.5 47t-16.5 31t-30.5 11.5q-24 0 -52 -10l-10 27l209 84h33v-697q0 -67 -14 -129.5t-46 -111t-84 -78t-129 -29.5q-16 0 -39 4t-44.5 13 t-36.5 23.5t-15 35.5zM147 926q0 31 22.5 53t53.5 22t54.5 -22t23.5 -53q0 -32 -23 -55t-55 -23t-54 22t-22 56z" />
<glyph unicode="k" d="M10 0v29q39 0 61.5 5t34.5 18.5t15.5 37.5t3.5 62v705q0 63 -10.5 90.5t-40.5 27.5q-13 0 -25 -3.5t-24 -8.5l-15 26l209 82h35v-674l174 148q6 5 18 15.5t24 22.5t21 24.5t9 21.5q0 10 -5 17.5t-13 12t-17.5 6.5t-18.5 3v22h299v-22q-32 -2 -57.5 -6.5t-47.5 -14.5 t-42.5 -25t-44.5 -36l-182 -162l217 -271q33 -41 56 -65.5t43.5 -37.5t42 -17t50.5 -4v-29h-334v29q7 0 15.5 0.5t15.5 3.5t12 8t5 14q0 17 -10 32t-19 28l-211 266v-225q0 -36 2.5 -60.5t13 -39.5t33 -21t62.5 -6v-29h-355z" />
<glyph unicode="l" horiz-adv-x="430" d="M45 989l207 82h33v-915q0 -35 3.5 -59t15 -39t33.5 -22t60 -7v-29h-340v29q36 0 56.5 8.5t31 24.5t13 39.5t2.5 54.5v693q0 25 -1.5 47.5t-7.5 39.5t-17 27t-30 10q-12 0 -23 -2.5t-24 -7.5z" />
<glyph unicode="m" horiz-adv-x="1202" d="M10 627l209 84h33v-146q24 26 50 52t55.5 47t62.5 34t72 13q74 0 116.5 -38.5t59.5 -107.5q24 28 49.5 54t54.5 46.5t62.5 33t74.5 12.5q56 0 91.5 -22.5t56 -58.5t28 -82t7.5 -93v-299q0 -32 2.5 -56t13 -40t31.5 -23.5t57 -7.5v-29h-342v29q40 0 62.5 6t33 21t13 39.5 t2.5 60.5v299q0 29 -4.5 58.5t-17 53.5t-35 39t-58.5 15q-26 0 -50.5 -8t-47 -21.5t-42.5 -30.5t-38 -35v-370q0 -36 3 -60.5t14 -39.5t33.5 -21t61.5 -6v-29h-350v29q41 0 63.5 6t33.5 20.5t13.5 39t2.5 61.5v299q0 30 -5 60t-17.5 54t-35.5 39t-59 15q-27 0 -51.5 -8.5 t-47 -22t-42 -31t-37.5 -35.5v-370q0 -36 3 -60.5t14 -39.5t34 -21t62 -6v-29h-342v29q37 0 57.5 7.5t31 23t13 39.5t2.5 57v330q0 23 -1.5 45.5t-6.5 40.5t-16 29t-29 11q-13 0 -26 -3.5t-25 -8.5z" />
<glyph unicode="n" d="M8 627l211 84h31v-146q21 25 46.5 51t54.5 47t62 34.5t68 13.5q56 0 91.5 -23t55.5 -60.5t27 -84t7 -92.5v-295q0 -33 3 -57t13.5 -39.5t32 -23t59.5 -7.5v-29h-346v29q39 0 61.5 6t34 20.5t14.5 39t3 61.5v282q0 29 -2.5 61t-13.5 58.5t-33 43.5t-60 17q-27 0 -52 -8.5 t-47.5 -22t-42 -31.5t-36.5 -36v-364q0 -36 3 -60.5t14 -39.5t33.5 -21t61.5 -6v-29h-344v29q38 0 59 7.5t31.5 23t12.5 39.5t2 57v318q0 26 -1.5 50.5t-7 44t-16 31.5t-28.5 12q-13 0 -26 -3.5t-26 -8.5z" />
<glyph unicode="o" d="M51 338q0 73 23.5 140t67.5 119t106 83t139 31q75 0 136.5 -27.5t105 -75.5t67 -112.5t23.5 -137.5q0 -75 -23.5 -144t-67.5 -121.5t-107 -84t-142 -31.5q-75 0 -135.5 30t-103 80.5t-66 115.5t-23.5 135zM193 401q0 -33 4.5 -73t14.5 -81t26.5 -79.5t40.5 -68.5 t56.5 -48t74.5 -18q54 0 87 25.5t51 65t24 86.5t6 89q0 33 -4 73t-14 80.5t-26 78t-40 67t-57 47t-75 17.5q-51 0 -84 -25.5t-52 -64t-26 -84.5t-7 -87z" />
<glyph unicode="p" d="M-8 -303q42 1 66 7.5t35.5 21.5t14.5 41t3 67v653q0 28 -1.5 50.5t-7 38t-16.5 24t-31 8.5q-27 0 -51 -12l-8 27l215 86h29v-162q18 31 40 60.5t49.5 52.5t60 37t71.5 14q67 0 116.5 -31.5t81 -80.5t47 -109.5t15.5 -118.5q0 -70 -20 -140.5t-60 -126.5t-99.5 -91.5 t-138.5 -35.5q-46 0 -87.5 16t-75.5 48v-211q0 -38 3 -63t14.5 -40t34.5 -22t64 -8v-29h-364v29zM240 244q0 -43 5 -82.5t22 -70t48.5 -48.5t85.5 -18q55 0 93.5 25.5t61.5 65.5t33.5 88.5t10.5 94.5q0 48 -8.5 103.5t-30.5 103.5t-60.5 80t-99.5 32q-42 0 -81.5 -34 t-79.5 -82v-258z" />
<glyph unicode="q" d="M51 315q0 78 24.5 150t70 126.5t112 87t150.5 32.5q37 0 75 -10t66 -39q46 21 86 49h27v-889q0 -35 3.5 -59t15 -38.5t33.5 -21t60 -6.5v-29h-350v29q37 0 59.5 6t34.5 20.5t15.5 38.5t3.5 60v299q-21 -26 -46.5 -51.5t-54 -46t-61 -33.5t-66.5 -13q-65 0 -113.5 31.5 t-80.5 81t-48 109t-16 116.5zM178 371q0 -49 11 -100t35.5 -92.5t64.5 -68t98 -26.5q45 0 83 25t67 57v326q0 77 -36 121t-118 44q-59 0 -98 -27t-63 -68.5t-34 -92t-10 -98.5z" />
<glyph unicode="r" horiz-adv-x="528" d="M6 627l213 84h31v-156q13 24 31 51t40.5 50.5t49 39t57.5 15.5q18 0 36 -5.5t31.5 -16.5t22 -26.5t8.5 -35.5q0 -28 -20.5 -49t-48.5 -21q-19 0 -33 8.5t-26.5 18t-23.5 18t-24 8.5q-22 0 -49 -34t-51 -82v-334q0 -66 25 -98.5t96 -32.5v-29h-357v29q39 0 60.5 6t32.5 21 t13.5 39.5t2.5 60.5v298q0 36 -1.5 64.5t-7.5 49t-18.5 31.5t-34.5 11t-47 -10z" />
<glyph unicode="s" horiz-adv-x="602" d="M76 526q0 48 19 82.5t50 57.5t71.5 34t82.5 11q20 0 39 -4t38 -9.5t37.5 -9.5t37.5 -4q12 0 19.5 8t12.5 19h27v-236h-27q-8 37 -22.5 71.5t-36.5 61.5t-53.5 43.5t-73.5 16.5q-22 0 -45.5 -4t-43 -14t-32 -28.5t-12.5 -46.5q0 -50 28.5 -81.5t71 -55t92 -44.5t92 -48.5 t71 -68t28.5 -103.5q0 -45 -21 -81t-54 -62t-74.5 -40t-82.5 -14q-24 0 -49.5 7.5t-49.5 16.5t-45.5 16.5t-39.5 7.5q-5 0 -9 -4.5t-7.5 -10t-6 -11.5t-4.5 -9h-26v246h26q8 -41 25 -79t43.5 -67.5t62 -47t80.5 -17.5q23 0 44.5 6.5t38 19.5t26.5 32t10 44q0 48 -26.5 80.5 t-66.5 57.5t-86 47.5t-86 51t-66.5 67t-26.5 95.5z" />
<glyph unicode="t" horiz-adv-x="430" d="M12 639v23q39 15 71.5 43t59 63.5t47 74.5t35.5 75h23v-228h162v-51h-162v-461q0 -17 2.5 -37t9.5 -37.5t20.5 -29t34.5 -11.5q34 0 54 17.5t32 46.5h29q-8 -29 -24 -56t-38.5 -48t-50.5 -33.5t-59 -12.5q-41 0 -67 15.5t-42 41t-22 58.5t-6 68v479h-109z" />
<glyph unicode="u" d="M0 662v28h244v-461q0 -30 4.5 -58t17 -50t35 -35.5t57.5 -13.5q25 0 49 9t46 23t41.5 31.5t35.5 34.5v391q0 31 -6.5 51t-20 31t-35 15t-50.5 4v28h237v-508q0 -11 1 -29t5.5 -34.5t14 -28.5t26.5 -12q30 0 62 12l10 -27l-209 -86h-35v148q-23 -25 -49 -51t-55.5 -47.5 t-62 -35.5t-68.5 -14q-56 0 -91 25t-54.5 64t-26 87t-6.5 93v309q0 34 -6 55t-20 32.5t-36.5 15.5t-54.5 4z" />
<glyph unicode="v" d="M12 662v28h326v-28q-16 0 -31 -1t-26 -6t-18 -16t-7 -31q0 -17 5 -32t11 -29l160 -381l162 397q6 14 11 30.5t5 33.5q0 12 -6.5 19t-17.5 10.5t-25 4.5t-29 1v28h226v-28q-24 -1 -40 -7.5t-27 -18t-19 -28t-17 -37.5l-243 -594h-31l-248 586q-11 25 -21.5 42t-24 28 t-32 18t-43.5 11z" />
<glyph unicode="w" horiz-adv-x="1114" d="M8 662v28h291v-28q-25 0 -44 -8.5t-19 -39.5q0 -14 2.5 -28.5t7.5 -26.5l149 -397l148 323q-13 36 -22 67.5t-23.5 55.5t-37.5 38.5t-65 15.5v28h330v-28q-17 -1 -33.5 -3t-30 -7.5t-22 -17t-8.5 -32.5q0 -8 10.5 -39t27 -74t36.5 -91.5t38.5 -93t33 -79t20.5 -47.5 l143 381q6 16 11 32.5t5 33.5q0 13 -8 20t-19 11t-23.5 5t-22.5 1v28h219v-28q-37 -5 -60.5 -28.5t-37.5 -58.5l-230 -598h-31l-174 443l-198 -443h-29l-223 582q-9 24 -17.5 41.5t-20.5 29.5t-29 19.5t-44 12.5z" />
<glyph unicode="x" d="M20 662v28h326v-28h-8q-20 0 -34.5 -7t-14.5 -30q0 -9 13.5 -33t31 -52t34 -52.5t23.5 -34.5q7 10 25.5 34.5t37.5 52t33.5 52.5t14.5 35q0 22 -18.5 28.5t-37.5 6.5v28h234v-28q-40 -1 -78.5 -31.5t-72 -71.5t-61.5 -84t-47 -69l179 -254q27 -39 46.5 -63t36.5 -37 t33.5 -17.5t37.5 -5.5v-29h-326v29q11 0 23 1.5t22 6t16.5 13t6.5 22.5q0 7 -9.5 24.5t-24.5 41t-32.5 49.5t-34.5 49.5t-30 42t-19 26.5q-7 -9 -22 -27t-33 -40.5t-37 -47t-34.5 -47.5t-25.5 -41t-10 -28q0 -14 6.5 -22.5t16.5 -13.5t22 -7t23 -2v-29h-225v29 q15 0 28.5 6.5t30 21.5t36.5 39.5t48 61.5l145 192l-131 191q-18 27 -34.5 48.5t-35 37.5t-41 25t-53.5 10z" />
<glyph unicode="y" d="M8 662v28h324v-28q-15 0 -30 -1t-27.5 -5.5t-20.5 -14.5t-8 -29q0 -21 8.5 -42t17.5 -40l168 -348l154 383q6 14 11 28t5 28q0 15 -6.5 23.5t-17 12.5t-23 4.5t-24.5 0.5v28h225v-28q-24 -2 -39.5 -10.5t-26.5 -22t-19 -31.5t-17 -39l-281 -690q-15 -35 -37.5 -71.5 t-52.5 -65.5t-66 -47.5t-78 -18.5q-19 0 -37.5 5.5t-32.5 16.5t-23 27t-9 37q0 37 21 52.5t55 15.5q14 0 27.5 -4t27 -9.5t26.5 -9.5t25 -4q20 0 38 14.5t33.5 37t28.5 50t23.5 53.5t18 48t12.5 33l-248 520q-10 20 -21 39.5t-25.5 35t-34 25.5t-44.5 13z" />
<glyph unicode="z" horiz-adv-x="686" d="M31 0v29l458 610h-227q-43 0 -71 -5t-45.5 -20t-26 -42.5t-13.5 -71.5h-28l4 190h580v-28l-465 -611h254q53 0 84 6.5t48.5 24t25.5 48.5t14 81h26l-10 -211h-608z" />
<glyph unicode="{" horiz-adv-x="737" d="M164 350v39q31 4 62 17.5t56 34.5t40.5 49t15.5 61q0 31 -5.5 61t-12 60t-12 60t-5.5 61q0 56 24 104.5t64 85t90 60t103 28.5v-27q-79 -18 -123.5 -66.5t-44.5 -131.5q0 -26 5 -52t11.5 -52t11.5 -52t5 -53q0 -103 -56.5 -167.5t-150.5 -98.5q95 -35 151 -100.5 t56 -170.5q0 -27 -5 -52.5t-11.5 -51t-11.5 -51t-5 -51.5q0 -84 44.5 -132.5t123.5 -66.5v-27q-55 6 -105.5 30.5t-89.5 63t-62.5 88.5t-23.5 107q0 29 5.5 57.5t12 57t12 57t5.5 57.5q0 33 -15.5 61.5t-40.5 50t-56 35t-62 17.5z" />
<glyph unicode="|" horiz-adv-x="309" d="M121 -334v1405h65v-1405h-65z" />
<glyph unicode="}" horiz-adv-x="737" d="M154 -305q78 18 123 66.5t45 132.5q0 26 -5 51.5t-11.5 51t-11.5 51t-5 52.5q0 52 15 94.5t42 76t65 58t85 42.5q-94 34 -150.5 98.5t-56.5 167.5q0 27 5 53t11.5 52t11.5 52t5 52q0 83 -45 131.5t-123 66.5v27q53 -5 103.5 -28.5t89.5 -60t63 -85t24 -104.5 q0 -31 -5 -61t-11.5 -60t-11.5 -60t-5 -61q0 -33 15.5 -61t40 -49t55.5 -34.5t61 -17.5v-39q-30 -4 -61 -17.5t-55.5 -35t-40 -50t-15.5 -61.5q0 -29 5 -57.5t11.5 -57t11.5 -57t5 -57.5q0 -57 -23.5 -107t-62.5 -88.5t-89.5 -63t-104.5 -30.5v27z" />
<glyph unicode="~" horiz-adv-x="840" d="M31 334q17 32 36.5 64t45 57.5t57.5 41t74 15.5q43 0 91 -18t96 -39.5t93 -39.5t82 -18q29 0 53.5 12t44.5 31t36 43.5t28 48.5l43 -57q-16 -31 -37 -60.5t-47.5 -52.5t-58.5 -37t-70 -14q-47 0 -92 17.5t-90 38t-89.5 38t-90.5 17.5q-31 0 -55 -13.5t-43.5 -34.5 t-35.5 -46t-30 -49z" />
<glyph unicode="&#xa1;" horiz-adv-x="514" d="M171 -220q0 9 0.5 22t2.5 29l68 611h30l65 -611q4 -27 5 -38t1 -20q0 -51 -25 -78.5t-63 -27.5q-14 0 -29 6t-27 19.5t-20 35t-8 52.5zM174 649q0 18 7 34t18 27.5t26 18.5t32 7q13 0 27.5 -5t27.5 -15.5t21.5 -27t8.5 -39.5q0 -20 -8 -35t-20 -25.5t-27 -16t-30 -5.5 t-29.5 5.5t-26.5 16t-19.5 26t-7.5 34.5z" />
<glyph unicode="&#xa2;" d="M94 344q0 72 23 138.5t66 117.5t104 81t137 30q33 0 63 -6l107 294h53l-110 -309q20 -8 41.5 -23t39.5 -34t29.5 -41.5t11.5 -46.5q0 -34 -19.5 -49t-51.5 -15t-47 10t-22 26t-9.5 36t-9.5 41l-168 -461q25 -17 53 -26t57 -9q42 0 75 14t58.5 38t45 55.5t34.5 66.5 l23 -10q-9 -54 -33 -105t-61.5 -91t-87 -64.5t-107.5 -24.5q-28 0 -54 6t-52 17l-103 -285h-53l113 310q-40 27 -68 62.5t-45 76.5t-25 86.5t-8 93.5zM219 410q0 -63 15.5 -126t58.5 -114l172 475q-30 17 -66 17q-50 0 -84.5 -23.5t-55.5 -60.5t-30.5 -81.5t-9.5 -86.5z" />
<glyph unicode="&#xa3;" d="M45 78q0 56 35.5 87.5t89.5 31.5q15 0 31.5 -1.5t31.5 -5.5q2 13 2.5 25t0.5 25q0 65 -5.5 129t-11.5 129h-145v71h145q-2 37 -6 74.5t-4 75.5q0 62 18.5 120.5t54 104t87.5 73t120 27.5q34 0 68 -10t61.5 -30t44.5 -49t17 -66q0 -22 -17 -42t-40 -20q-28 0 -39 13 t-15 32t-5 42t-9 42t-26.5 32t-57.5 13q-44 0 -71 -20t-41.5 -50.5t-19.5 -68t-5 -71.5q0 -56 5.5 -112t10.5 -110h195v-71h-195q0 -43 -1.5 -83.5t-6 -80t-13.5 -78.5t-24 -80q21 -7 53.5 -17.5t67.5 -20t68.5 -16.5t54.5 -7q125 0 160 121l28 -7q-5 -44 -21.5 -88 t-43.5 -79t-65 -57.5t-87 -22.5q-37 0 -69 11.5t-62 29t-58.5 39t-56.5 42.5q-10 -21 -23.5 -43t-30.5 -39.5t-39 -28.5t-48 -11q-46 0 -67 26t-21 70zM90 84q0 -25 10.5 -41t38.5 -16q20 0 34.5 10t25 25.5t16.5 33.5t10 33q-27 21 -65 21q-32 0 -51 -15.5t-19 -50.5z" />
<glyph unicode="&#xa4;" horiz-adv-x="891" d="M45 291l152 153q-32 41 -48 89.5t-16 101.5t15.5 103.5t52.5 90.5l-156 156l53 55l156 -157q42 34 92 49.5t103 15.5q52 0 99 -15.5t87 -49.5l158 157l53 -55l-154 -154q34 -42 50 -92t16 -104q0 -53 -16 -101.5t-48 -89.5l152 -153l-53 -53l-154 153q-40 -35 -88 -52 t-102 -17q-56 0 -105.5 16t-91.5 53l-154 -153zM217 635q0 -48 18 -90t49.5 -73t73.5 -48.5t91 -17.5q47 0 88 18t71.5 49.5t48 73t17.5 88.5t-17.5 88.5t-48.5 73t-72 49.5t-87 18q-49 0 -91 -17.5t-73.5 -48.5t-49.5 -73t-18 -90z" />
<glyph unicode="&#xa5;" d="M2 995v27h334v-27q-10 -1 -26 -3.5t-31 -7.5t-26 -14t-11 -22q0 -4 12 -35.5t31 -77.5t40.5 -99.5t41.5 -101t34 -82t17 -42.5l162 381q5 13 9.5 27.5t4.5 29.5t-8.5 24t-21 14t-27.5 6.5t-27 2.5v27h262v-27q-29 0 -48.5 -9.5t-34.5 -26t-26 -37.5t-22 -45l-164 -367 h281v-53h-301l-6 -15v-120h307v-56h-307v-82q0 -44 2.5 -73t14.5 -47t38 -25.5t74 -7.5v-31h-390v31q49 0 76 7t39.5 24t14.5 47t2 75v82h-308v56h308v108l-11 27h-297v53h271l-160 375q-11 24 -20.5 43.5t-23 33t-32.5 22t-47 11.5z" />
<glyph unicode="&#xa6;" horiz-adv-x="467" d="M197 -295v594h75v-594h-75zM197 500v594h75v-594h-75z" />
<glyph unicode="&#xa7;" d="M117 381q0 43 12.5 80t35 68.5t52.5 58t66 47.5q-16 20 -32.5 43t-30 48t-22 51.5t-8.5 53.5q0 44 17 82.5t46 67.5t67.5 46t82.5 17q37 0 72 -11t62 -32.5t43 -52.5t16 -71q0 -29 -13.5 -48.5t-45.5 -19.5q-23 0 -41.5 17t-18.5 40q0 19 5 37t5 37q0 40 -23 56t-61 16 q-28 0 -52 -10t-41.5 -27.5t-27.5 -41.5t-10 -52q0 -49 28.5 -88.5t71 -76t92 -72.5t92 -77.5t71 -91.5t28.5 -113q0 -44 -12.5 -81t-35 -69t-52.5 -59t-66 -49q36 -38 63.5 -86t27.5 -104q0 -46 -16 -85.5t-45 -68t-68.5 -45t-85.5 -16.5q-36 0 -70 12t-60 34.5t-41.5 53 t-15.5 68.5q0 26 15 46.5t43 20.5q27 0 43 -20t16 -45q0 -20 -7 -41t-7 -41q0 -16 9.5 -27.5t23 -18.5t29.5 -10t28 -3q24 0 47.5 10t42.5 27t31 39t12 46q0 49 -28.5 89.5t-71.5 78.5t-93.5 76t-93.5 80.5t-71.5 93t-28.5 113.5zM193 444q0 -39 14 -70.5t37 -58.5 t52.5 -50.5t59.5 -46t58 -45t49 -46.5q22 14 43 31t37 38t25.5 45.5t9.5 53.5q0 49 -29.5 94t-71.5 85.5t-88 75t-80 62.5q-24 -14 -45 -31t-36.5 -38t-25 -46t-9.5 -53z" />
<glyph unicode="&#xa8;" horiz-adv-x="461" d="M0 926q0 15 6.5 28.5t17 24t24 16.5t28.5 6q31 0 54.5 -22t23.5 -53q0 -16 -6.5 -30.5t-17 -25t-25 -16.5t-29.5 -6q-31 0 -53.5 23.5t-22.5 54.5zM307 926q0 15 6.5 28.5t17.5 24t25 16.5t29 6q31 0 53.5 -22t22.5 -53q0 -16 -6 -30.5t-16.5 -25t-24.5 -16.5t-29 -6 q-31 0 -54.5 23.5t-23.5 54.5z" />
<glyph unicode="&#xa9;" horiz-adv-x="1174" d="M51 510q0 114 41.5 211.5t113.5 169t169.5 112.5t210.5 41q114 0 212 -41t170 -112.5t113 -169t41 -211.5q0 -112 -41.5 -209.5t-113.5 -170t-170 -114t-211 -41.5t-210.5 41.5t-169.5 113.5t-113.5 169.5t-41.5 210.5zM100 510q0 -102 37.5 -190.5t103 -154t154.5 -103 t191 -37.5q103 0 192 37.5t155 103t104 154t38 190.5q0 103 -38 192t-104 155t-155 104t-192 38q-102 0 -191 -38t-154.5 -104.5t-103 -155.5t-37.5 -191zM240 506q0 81 30 146t81 110.5t119.5 69.5t145.5 24q24 0 48.5 -5.5t47 -12t41.5 -12t31 -5.5q14 0 23 11.5t14 23.5 h29l16 -211h-28q-28 82 -83.5 129t-146.5 47q-65 0 -111 -24t-75 -64.5t-43 -93.5t-14 -111q0 -60 13.5 -116t43 -99t77.5 -68.5t117 -25.5q151 0 234 121l29 -16q-53 -76 -125.5 -115t-163.5 -39q-72 0 -136 25t-111.5 69.5t-75 106t-27.5 135.5z" />
<glyph unicode="&#xaa;" horiz-adv-x="492" d="M38 706q0 23 10 43.5t40 41.5t84 43.5t143 48.5v16q0 60 -23 84.5t-71 24.5q-33 0 -52.5 -15t-21.5 -36q1 -6 1.5 -14.5t0.5 -13.5q0 -21 -12.5 -31.5t-32.5 -10.5q-46 0 -46 43q0 24 15 43.5t40 33t57.5 20.5t68.5 7q54 0 86.5 -10t50.5 -28.5t23.5 -44.5t5.5 -58v-141 q0 -60 3 -73t8 -18t16 -5q4 0 8.5 1t10.5 4.5t15.5 11t23.5 20.5v-26q-60 -67 -117 -67q-23 0 -40.5 14t-17.5 53q-33 -21 -54.5 -34t-38 -20.5t-31 -10t-34.5 -2.5q-54 0 -86.5 29t-32.5 77zM44 493v33h438v-33h-438zM131 726q0 -31 22.5 -53t53.5 -22q41 0 108 46v159 q-63 -21 -99.5 -38t-55.5 -32.5t-24 -30t-5 -29.5z" />
<glyph unicode="&#xab;" d="M47 350l293 355h41l-184 -355l184 -356h-41zM383 350l297 355h43l-184 -355l184 -356h-43z" />
<glyph unicode="&#xac;" horiz-adv-x="922" d="M59 535v90h803v-344h-90v254h-713z" />
<glyph unicode="&#xad;" horiz-adv-x="514" d="M61 289v112h390v-112h-390z" />
<glyph unicode="&#xae;" horiz-adv-x="1174" d="M51 510q0 114 41.5 211.5t113.5 169t169.5 112.5t210.5 41q114 0 212 -41t170 -112.5t113 -169t41 -211.5q0 -112 -41.5 -209.5t-113.5 -170t-170 -114t-211 -41.5t-210.5 41.5t-169.5 113.5t-113.5 169.5t-41.5 210.5zM100 510q0 -102 37.5 -190.5t103 -154t154.5 -103 t191 -37.5q103 0 192 37.5t155 103t104 154t38 190.5q0 103 -38 192t-104 155t-155 104t-192 38q-102 0 -191 -38t-154.5 -104.5t-103 -155.5t-37.5 -191zM283 188v25q26 0 41 5t22.5 17t9.5 31.5t2 48.5v416q0 22 -1.5 37.5t-8.5 25.5t-20 14.5t-37 4.5v27h291q39 0 79 -9 t72.5 -29.5t53 -52.5t20.5 -77q0 -38 -14 -66t-37 -48.5t-53.5 -33.5t-63.5 -20l158 -225q19 -27 40 -45t52 -21v-25h-141l-222 306h-57v-224q0 -19 7 -30.5t19 -17.5t28.5 -7.5t35.5 -1.5v-25h-276zM469 526q35 0 73.5 5t70.5 19.5t52.5 41t20.5 70.5q0 34 -12 60.5 t-33 45.5t-49 29t-60 10q-15 0 -31.5 -2.5t-31.5 -7.5v-271z" />
<glyph unicode="&#xaf;" horiz-adv-x="483" d="M0 848v84h483v-84h-483z" />
<glyph unicode="&#xb0;" horiz-adv-x="475" d="M74 905q0 34 12.5 64t34.5 52.5t52 35t65 12.5q34 0 64 -12.5t52 -35t34.5 -52.5t12.5 -64t-12.5 -63.5t-34.5 -51.5t-52 -34.5t-64 -12.5q-35 0 -65 12.5t-52 34.5t-34.5 51.5t-12.5 63.5zM133 905q0 -21 8 -40t22.5 -32.5t33.5 -21.5t41 -8q21 0 40 8t33.5 21.5 t22.5 32.5t8 40q0 22 -8 41t-22.5 33t-33.5 22.5t-40 8.5q-22 0 -41 -8.5t-33.5 -22.5t-22.5 -33t-8 -41z" />
<glyph unicode="&#xb1;" horiz-adv-x="1485" d="M297 0v92h891v-92h-891zM297 532v93h399v266h92v-266h400v-93h-400v-268h-92v268h-399z" />
<glyph unicode="&#xb2;" horiz-adv-x="543" d="M18 387v16q58 44 119.5 94t112 103t83 106.5t32.5 104.5q0 31 -11.5 56t-31.5 42t-46.5 26t-56.5 9q-57 0 -97.5 -24.5t-62.5 -79.5h-18q12 89 65.5 131.5t141.5 42.5q35 0 72.5 -10t68 -30t50.5 -50.5t20 -71.5q0 -34 -17 -70.5t-45 -74t-63.5 -73.5t-71.5 -69 t-70 -60.5t-59 -47.5h195q30 0 52.5 1t40.5 6t33 14.5t29 27.5h21l-53 -119h-433z" />
<glyph unicode="&#xb3;" horiz-adv-x="543" d="M41 430q0 20 13 25.5t30 5.5q18 0 35.5 -6.5t36.5 -14t40 -14t44 -6.5q24 0 48.5 9t44 24.5t32 38t12.5 49.5q0 46 -19 76t-49.5 47t-68.5 24t-76 8v15q28 3 58 13t54.5 27.5t40 42.5t15.5 58q0 26 -10.5 45.5t-27.5 32.5t-39 19.5t-46 6.5q-45 0 -80 -20t-61 -55l-17 8 q31 59 80.5 94t118.5 35q28 0 58 -7t55 -22t41 -38.5t16 -57.5q0 -21 -9.5 -41t-23.5 -37.5t-31.5 -32.5t-33.5 -26q58 -19 96.5 -57.5t38.5 -102.5q0 -59 -27 -100t-69 -66.5t-93.5 -37t-101.5 -11.5q-12 0 -33 1t-41.5 6t-35.5 14.5t-15 27.5z" />
<glyph unicode="&#xb4;" horiz-adv-x="528" d="M88 786l213 215q19 19 42 34t51 15q19 0 29.5 -14t10.5 -31q0 -26 -18 -44.5t-43 -34.5l-223 -140h-62z" />
<glyph unicode="&#xb5;" horiz-adv-x="874" d="M94 -252q0 29 8.5 62.5t14.5 62.5q15 66 19.5 134t4.5 136v545h123v-411q0 -36 2.5 -72.5t13 -66t32 -48t59.5 -18.5q27 0 51.5 8.5t47 22.5t42.5 32t37 37v516h125v-498q0 -21 1.5 -43.5t6.5 -41.5t15 -31.5t28 -12.5q15 0 26 10.5t18 25.5t11 31t6 28h31 q-2 -36 -11 -68t-26 -57t-44.5 -39.5t-67.5 -14.5q-32 0 -53 13t-35 33.5t-21 46t-10 51.5q-23 -25 -49 -50.5t-56 -46.5t-63.5 -34t-69.5 -13q-76 0 -116 66v-35q0 -33 5.5 -65.5t11.5 -64.5t11.5 -64t5.5 -64q0 -15 -4.5 -30t-13.5 -27t-22 -19.5t-29 -7.5t-28.5 7.5 t-20.5 19.5t-12.5 26.5t-4.5 28.5z" />
<glyph unicode="&#xb6;" horiz-adv-x="698" d="M-10 739q0 76 27.5 130t74 88t108 49.5t130.5 15.5h372v-41h-100v-1315h-55v1315h-139v-1315h-56v789q-71 1 -136.5 15t-115.5 46.5t-80 86.5t-30 136z" />
<glyph unicode="&#xb7;" horiz-adv-x="279" d="M51 506q0 37 25.5 61.5t62.5 24.5t62.5 -24.5t25.5 -61.5q0 -38 -25.5 -63t-62.5 -25t-62.5 25t-25.5 63z" />
<glyph unicode="&#xb8;" horiz-adv-x="362" d="M18 -309l23 49q49 -19 96 -19q17 0 33 3t29 10.5t20.5 20t7.5 32.5q0 34 -20 46.5t-51 12.5q-14 0 -28 -1.5t-28 -6.5l-10 8l68 164h55l-43 -110q11 2 21.5 3t21.5 1q25 0 48.5 -6.5t41.5 -19.5t28.5 -33t10.5 -48q0 -36 -20 -60.5t-50 -40t-65 -22t-64 -6.5 q-62 0 -125 23z" />
<glyph unicode="&#xb9;" horiz-adv-x="543" d="M125 942l178 72h19v-518q0 -32 3 -50t12.5 -28t27.5 -12.5t49 -2.5v-16h-277v16q31 0 49.5 2.5t28.5 12.5t13 28t3 50v366q0 34 -7 56t-36 22q-14 0 -28 -4t-27 -10z" />
<glyph unicode="&#xba;" horiz-adv-x="566" d="M43 811q0 42 16.5 82t47.5 71.5t75.5 50.5t101.5 19q54 0 98 -16.5t75.5 -45t48.5 -67t17 -82.5q0 -40 -15.5 -81t-46 -74t-76 -53.5t-106.5 -20.5q-52 0 -95.5 17.5t-74.5 47.5t-48.5 69t-17.5 83zM52 493v33h464v-33h-464zM144 848q0 -44 11.5 -84t32 -70.5t49.5 -48.5 t65 -18q27 0 49 8.5t37.5 27.5t24.5 49.5t9 74.5q0 46 -10.5 86t-30.5 69t-48.5 46t-64.5 17q-21 0 -43 -7.5t-40 -26t-29.5 -48.5t-11.5 -75z" />
<glyph unicode="&#xbb;" d="M49 -6l184 354l-184 357h43l297 -357l-297 -354h-43zM391 -6l184 354l-184 357h41l293 -357l-293 -354h-41z" />
<glyph unicode="&#xbc;" horiz-adv-x="1188" d="M147 954l150 74h16v-522q0 -29 1.5 -47t9 -28t23 -13.5t44.5 -3.5v-19h-233v19q27 0 43 3t24.5 12t10.5 25.5t2 43.5v369q0 10 -0.5 24.5t-4 28t-10.5 23t-20 9.5q-14 0 -26 -4t-23 -10zM213 -12l702 1052h70l-698 -1052h-74zM621 160v55l288 412h49v-404h82v-63h-82 v-166h-75v166h-262zM666 223h217v307z" />
<glyph unicode="&#xbd;" horiz-adv-x="1188" d="M125 954l149 74h17v-530q0 -27 2 -43.5t10 -25.5t24 -12t44 -3v-19h-236v19q28 0 44 3t24 12t10 25.5t2 43.5v378q0 13 -1.5 27t-5.5 24.5t-11 17.5t-17 7q-14 0 -26 -4t-23 -10zM199 -12l651 1052h72l-650 -1052h-73zM653 -6v18q48 44 100 93.5t94.5 102t70.5 106.5 t28 108q0 26 -8.5 50.5t-24.5 43t-39 30t-51 11.5q-52 0 -85 -27.5t-50 -76.5h-16q4 37 17.5 68.5t35 55t52.5 37t71 13.5q35 0 67 -11.5t56 -33t38.5 -52t14.5 -67.5q0 -53 -29.5 -108t-71.5 -107.5t-89 -100t-82 -84.5h161q25 0 44.5 1t34.5 5.5t27.5 14.5t24.5 29h19 l-45 -119h-365z" />
<glyph unicode="&#xbe;" horiz-adv-x="1188" d="M127 434q0 17 10.5 24t26.5 7q15 0 29.5 -6.5t31 -14t34 -14t38.5 -6.5q24 0 45.5 10t37.5 26.5t25 38t9 44.5q0 43 -14 72.5t-38.5 48t-58 27t-72.5 9.5v15q29 3 55 14.5t45.5 30t30.5 44t11 56.5q0 45 -27 75t-74 30q-40 0 -69 -22t-49 -54l-17 6q14 28 28.5 52.5 t34 42.5t45 28t60.5 10q28 0 54 -8.5t46 -24.5t32 -39.5t12 -54.5q0 -21 -8 -40t-20 -37t-27 -33.5t-29 -28.5q55 -22 84.5 -62t29.5 -100q0 -54 -19.5 -94.5t-52.5 -67.5t-77 -41t-94 -14q-13 0 -31.5 1t-36 6t-29.5 15.5t-12 28.5zM246 -12l702 1052h70l-696 -1052h-76z M639 160v55l289 412h51v-404h82v-63h-82v-166h-76v166h-264zM684 223h219v307z" />
<glyph unicode="&#xbf;" horiz-adv-x="686" d="M58 -95q0 43 12 80t29.5 68t38 56.5t38.5 45.5q40 45 69.5 80.5t49.5 70.5t31 74t13 92h32q-4 -90 -28 -169t-74 -162q-12 -20 -24.5 -46t-23 -56t-17.5 -61t-7 -61q0 -57 16.5 -96.5t42 -64.5t57 -36t60.5 -11q36 0 63 9.5t44.5 23.5t26.5 31.5t9 34.5q0 16 -7.5 33.5 t-16.5 34.5t-16.5 33t-7.5 29q0 16 5.5 28t14.5 20t20 12.5t21 4.5q8 0 22 -5t27.5 -18t23.5 -36t10 -60q0 -42 -18 -81.5t-52.5 -69.5t-85 -48t-116.5 -18q-61 0 -113 16t-89.5 47t-58.5 75t-21 100zM266 649q0 21 7.5 36.5t19.5 26.5t26.5 16.5t29.5 5.5q16 0 31.5 -5.5 t27.5 -16.5t19.5 -27t7.5 -36q0 -37 -26 -61t-60 -24q-15 0 -30 6t-27 17.5t-19 27t-7 34.5z" />
<glyph unicode="&#xc0;" horiz-adv-x="1110" d="M12 0v29q36 2 61 16.5t44 38t33.5 54t29.5 65.5l361 841h26l355 -847q15 -35 28.5 -64.5t32.5 -52t46 -36t69 -15.5v-29h-404v29q17 0 35 2.5t33 9.5t25 19.5t10 33.5q0 20 -12 56t-27 74t-30 71t-21 47h-396q-4 -8 -12.5 -26.5t-19.5 -42t-22 -49.5t-20.5 -51t-15.5 -46 t-6 -33q0 -20 13 -32.5t32 -19.5t39 -9.5t35 -3.5v-29h-322zM334 397h352l-174 416zM347 1323q0 58 47 58q40 0 90 -50l215 -215h-63l-221 140q-68 42 -68 67z" />
<glyph unicode="&#xc1;" horiz-adv-x="1110" d="M12 0v29q36 2 61 16.5t44 38t33.5 54t29.5 65.5l361 841h26l355 -847q15 -35 28.5 -64.5t32.5 -52t46 -36t69 -15.5v-29h-404v29q17 0 35 2.5t33 9.5t25 19.5t10 33.5q0 20 -12 56t-27 74t-30 71t-21 47h-396q-4 -8 -12.5 -26.5t-19.5 -42t-22 -49.5t-20.5 -51t-15.5 -46 t-6 -33q0 -20 13 -32.5t32 -19.5t39 -9.5t35 -3.5v-29h-322zM334 397h352l-174 416zM416 1116l213 215q19 19 42 34t51 15q19 0 29.5 -14t10.5 -31q0 -26 -18 -44.5t-43 -34.5l-223 -140h-62z" />
<glyph unicode="&#xc2;" horiz-adv-x="1110" d="M12 0v29q36 2 61 16.5t44 38t33.5 54t29.5 65.5l361 841h26l355 -847q15 -35 28.5 -64.5t32.5 -52t46 -36t69 -15.5v-29h-404v29q17 0 35 2.5t33 9.5t25 19.5t10 33.5q0 20 -12 56t-27 74t-30 71t-21 47h-396q-4 -8 -12.5 -26.5t-19.5 -42t-22 -49.5t-20.5 -51t-15.5 -46 t-6 -33q0 -20 13 -32.5t32 -19.5t39 -9.5t35 -3.5v-29h-322zM313 1106l195 258h96l192 -258h-53l-188 160l-189 -160h-53zM334 397h352l-174 416z" />
<glyph unicode="&#xc3;" horiz-adv-x="1110" d="M12 0v29q36 2 61 16.5t44 38t33.5 54t29.5 65.5l361 841h26l355 -847q15 -35 28.5 -64.5t32.5 -52t46 -36t69 -15.5v-29h-404v29q17 0 35 2.5t33 9.5t25 19.5t10 33.5q0 20 -12 56t-27 74t-30 71t-21 47h-396q-4 -8 -12.5 -26.5t-19.5 -42t-22 -49.5t-20.5 -51t-15.5 -46 t-6 -33q0 -20 13 -32.5t32 -19.5t39 -9.5t35 -3.5v-29h-322zM298 1178q8 33 22 62t35 50t49.5 33t64.5 12q30 0 53 -10.5t45 -23.5t45 -23.5t53 -10.5q37 0 67.5 19.5t39.5 56.5h40q-3 -31 -17 -60.5t-36 -53t-50 -37.5t-61 -14q-42 0 -68 11t-48 24.5t-45.5 25t-60.5 11.5 q-16 0 -31 -6.5t-27 -16.5t-20.5 -23t-9.5 -26h-40zM334 397h352l-174 416z" />
<glyph unicode="&#xc4;" horiz-adv-x="1110" d="M12 0v29q36 2 61 16.5t44 38t33.5 54t29.5 65.5l361 841h26l355 -847q15 -35 28.5 -64.5t32.5 -52t46 -36t69 -15.5v-29h-404v29q17 0 35 2.5t33 9.5t25 19.5t10 33.5q0 20 -12 56t-27 74t-30 71t-21 47h-396q-4 -8 -12.5 -26.5t-19.5 -42t-22 -49.5t-20.5 -51t-15.5 -46 t-6 -33q0 -20 13 -32.5t32 -19.5t39 -9.5t35 -3.5v-29h-322zM313 1246q0 15 6.5 28.5t17 24t24 16.5t28.5 6q31 0 54.5 -22t23.5 -53q0 -16 -6.5 -30.5t-17 -25t-25 -16.5t-29.5 -6q-31 0 -53.5 23.5t-22.5 54.5zM334 397h352l-174 416zM620 1246q0 15 6.5 28.5t17.5 24 t25 16.5t29 6q31 0 53.5 -22t22.5 -53q0 -16 -6 -30.5t-16.5 -25t-24.5 -16.5t-29 -6q-31 0 -54.5 23.5t-23.5 54.5z" />
<glyph unicode="&#xc5;" horiz-adv-x="1110" d="M12 0v29q36 2 61 16.5t44 38t33.5 54t29.5 65.5l361 841h26l355 -847q15 -35 28.5 -64.5t32.5 -52t46 -36t69 -15.5v-29h-404v29q17 0 35 2.5t33 9.5t25 19.5t10 33.5q0 20 -12 56t-27 74t-30 71t-21 47h-396q-4 -8 -12.5 -26.5t-19.5 -42t-22 -49.5t-20.5 -51t-15.5 -46 t-6 -33q0 -20 13 -32.5t32 -19.5t39 -9.5t35 -3.5v-29h-322zM334 397h352l-174 416zM411 1260q0 32 12 58.5t32 45.5t46.5 29.5t55.5 10.5q27 0 52.5 -10t45.5 -28.5t32 -45.5t12 -60q0 -32 -12 -58.5t-32 -45.5t-45.5 -29.5t-52.5 -10.5t-53 10.5t-47 29.5t-33.5 45.5 t-12.5 58.5zM463 1260q0 -22 8 -39t21 -29t30 -18t35 -6q19 0 35.5 7.5t28.5 20t19 29.5t7 35q0 21 -7.5 38t-20 29t-29 18.5t-33.5 6.5q-38 0 -66 -25.5t-28 -66.5z" />
<glyph unicode="&#xc6;" horiz-adv-x="1374" d="M-18 0v28q33 0 56 13q11 7 23.5 18.5t27 31t32 47.5t39.5 69l312 580q29 54 43.5 91t14.5 55q0 13 -5.5 23.5t-20 18t-39.5 13t-65 7.5v27h838l11 -223h-25q-11 52 -22 85t-31 51.5t-54.5 25t-91.5 6.5h-251v-404h194q44 0 74 7.5t49 25t28.5 45.5t12.5 69h26v-353h-26 q-6 45 -14 74t-25 45.5t-46.5 23t-78.5 6.5h-194v-338q0 -30 0.5 -52.5t5.5 -29.5q3 -5 8.5 -10.5t14.5 -10t23 -7.5t36 -3h136q64 0 110 11.5t80.5 36.5t61.5 63t53 92h27l-81 -258h-767v28h37q62 0 93 37q18 24 18 116v214h-298l-94 -175q-26 -48 -40 -79.5t-14 -51.5 q0 -31 33 -43.5t86 -17.5v-28h-321zM360 452h270v515z" />
<glyph unicode="&#xc7;" horiz-adv-x="1030" d="M55 496q0 114 37.5 213.5t106 174t164 117.5t212.5 43q39 0 72.5 -5.5t65 -14.5t62 -21.5t65.5 -27.5q15 0 26 7t18 17t11.5 22t7.5 23h27l22 -346h-22q-19 64 -48.5 117.5t-71 92.5t-97 61t-125.5 22t-123.5 -20.5t-94 -56.5t-68 -84t-44 -103.5t-24 -115t-7.5 -117.5 q0 -92 22 -173.5t68.5 -143.5t119 -98t173.5 -36q64 0 112.5 15t88 42.5t73 67t68.5 88.5l23 -16q-63 -113 -153.5 -180.5t-213.5 -81.5l-39 -100q11 2 21.5 3t21.5 1q25 0 48.5 -6.5t41.5 -19.5t28.5 -33t10.5 -48q0 -36 -20 -60.5t-50 -40t-65 -22t-64 -6.5q-62 0 -125 23 l23 49q49 -19 96 -19q17 0 33 3t29 10.5t20.5 20t7.5 32.5q0 34 -20 46.5t-51 12.5q-14 0 -28 -1.5t-28 -6.5l-10 8l62 151q-113 0 -205 40t-156.5 110t-99.5 165t-35 206z" />
<glyph unicode="&#xc8;" horiz-adv-x="942" d="M33 0v29q48 0 76.5 6t43.5 22.5t20 46t5 76.5v666q0 48 -4 77t-19 45t-44 21.5t-78 5.5v27h786l12 -223h-28q-13 49 -24.5 81.5t-31 51.5t-53 27t-90.5 8h-282v-404h225q47 0 75.5 6.5t46 23t26 45t14.5 73.5h28v-357h-28q-6 45 -14.5 74t-25.5 46.5t-45.5 24.5t-76.5 7 h-225v-336q0 -30 1.5 -51.5t10 -35.5t25.5 -21t49 -7h172q67 0 110 11t74.5 35t56.5 62.5t56 92.5h32l-90 -256h-786zM263 1323q0 58 47 58q40 0 90 -50l215 -215h-63l-221 140q-68 42 -68 67z" />
<glyph unicode="&#xc9;" horiz-adv-x="942" d="M33 0v29q48 0 76.5 6t43.5 22.5t20 46t5 76.5v666q0 48 -4 77t-19 45t-44 21.5t-78 5.5v27h786l12 -223h-28q-13 49 -24.5 81.5t-31 51.5t-53 27t-90.5 8h-282v-404h225q47 0 75.5 6.5t46 23t26 45t14.5 73.5h28v-357h-28q-6 45 -14.5 74t-25.5 46.5t-45.5 24.5t-76.5 7 h-225v-336q0 -30 1.5 -51.5t10 -35.5t25.5 -21t49 -7h172q67 0 110 11t74.5 35t56.5 62.5t56 92.5h32l-90 -256h-786zM332 1116l213 215q19 19 42 34t51 15q19 0 29.5 -14t10.5 -31q0 -26 -18 -44.5t-43 -34.5l-223 -140h-62z" />
<glyph unicode="&#xca;" horiz-adv-x="942" d="M33 0v29q48 0 76.5 6t43.5 22.5t20 46t5 76.5v666q0 48 -4 77t-19 45t-44 21.5t-78 5.5v27h786l12 -223h-28q-13 49 -24.5 81.5t-31 51.5t-53 27t-90.5 8h-282v-404h225q47 0 75.5 6.5t46 23t26 45t14.5 73.5h28v-357h-28q-6 45 -14.5 74t-25.5 46.5t-45.5 24.5t-76.5 7 h-225v-336q0 -30 1.5 -51.5t10 -35.5t25.5 -21t49 -7h172q67 0 110 11t74.5 35t56.5 62.5t56 92.5h32l-90 -256h-786zM229 1106l195 258h96l192 -258h-53l-188 160l-189 -160h-53z" />
<glyph unicode="&#xcb;" horiz-adv-x="942" d="M33 0v29q48 0 76.5 6t43.5 22.5t20 46t5 76.5v666q0 48 -4 77t-19 45t-44 21.5t-78 5.5v27h786l12 -223h-28q-13 49 -24.5 81.5t-31 51.5t-53 27t-90.5 8h-282v-404h225q47 0 75.5 6.5t46 23t26 45t14.5 73.5h28v-357h-28q-6 45 -14.5 74t-25.5 46.5t-45.5 24.5t-76.5 7 h-225v-336q0 -30 1.5 -51.5t10 -35.5t25.5 -21t49 -7h172q67 0 110 11t74.5 35t56.5 62.5t56 92.5h32l-90 -256h-786zM229 1246q0 15 6.5 28.5t17 24t24 16.5t28.5 6q31 0 54.5 -22t23.5 -53q0 -16 -6.5 -30.5t-17 -25t-25 -16.5t-29.5 -6q-31 0 -53.5 23.5t-22.5 54.5z M536 1246q0 15 6.5 28.5t17.5 24t25 16.5t29 6q31 0 53.5 -22t22.5 -53q0 -16 -6 -30.5t-16.5 -25t-24.5 -16.5t-29 -6q-31 0 -54.5 23.5t-23.5 54.5z" />
<glyph unicode="&#xcc;" horiz-adv-x="514" d="M39 0v29q49 0 78 6.5t44 23t19 46t4 75.5v662q0 47 -4 76.5t-19 46.5t-44 23.5t-78 6.5v27h438v-27q-48 0 -77 -6.5t-44.5 -23.5t-20.5 -46.5t-5 -76.5v-662q0 -46 4.5 -75.5t19.5 -46t44 -23t79 -6.5v-29h-438zM50 1323q0 58 47 58q40 0 90 -50l215 -215h-63l-221 140 q-68 42 -68 67z" />
<glyph unicode="&#xcd;" horiz-adv-x="514" d="M39 0v29q49 0 78 6.5t44 23t19 46t4 75.5v662q0 47 -4 76.5t-19 46.5t-44 23.5t-78 6.5v27h438v-27q-48 0 -77 -6.5t-44.5 -23.5t-20.5 -46.5t-5 -76.5v-662q0 -46 4.5 -75.5t19.5 -46t44 -23t79 -6.5v-29h-438zM119 1116l213 215q19 19 42 34t51 15q19 0 29.5 -14 t10.5 -31q0 -26 -18 -44.5t-43 -34.5l-223 -140h-62z" />
<glyph unicode="&#xce;" horiz-adv-x="514" d="M16 1106l195 258h96l192 -258h-53l-188 160l-189 -160h-53zM39 0v29q49 0 78 6.5t44 23t19 46t4 75.5v662q0 47 -4 76.5t-19 46.5t-44 23.5t-78 6.5v27h438v-27q-48 0 -77 -6.5t-44.5 -23.5t-20.5 -46.5t-5 -76.5v-662q0 -46 4.5 -75.5t19.5 -46t44 -23t79 -6.5v-29h-438 z" />
<glyph unicode="&#xcf;" horiz-adv-x="514" d="M16 1246q0 15 6.5 28.5t17 24t24 16.5t28.5 6q31 0 54.5 -22t23.5 -53q0 -16 -6.5 -30.5t-17 -25t-25 -16.5t-29.5 -6q-31 0 -53.5 23.5t-22.5 54.5zM39 0v29q49 0 78 6.5t44 23t19 46t4 75.5v662q0 47 -4 76.5t-19 46.5t-44 23.5t-78 6.5v27h438v-27q-48 0 -77 -6.5 t-44.5 -23.5t-20.5 -46.5t-5 -76.5v-662q0 -46 4.5 -75.5t19.5 -46t44 -23t79 -6.5v-29h-438zM323 1246q0 15 6.5 28.5t17.5 24t25 16.5t29 6q31 0 53.5 -22t22.5 -53q0 -16 -6 -30.5t-16.5 -25t-24.5 -16.5t-29 -6q-31 0 -54.5 23.5t-23.5 54.5z" />
<glyph unicode="&#xd0;" horiz-adv-x="1116" d="M27 0v28h38q36 0 57.5 10t32.5 29t14.5 47.5t3.5 66.5v330h-146v86h146v245q0 97 -20 121q-14 17 -36.5 24.5t-51.5 7.5h-38v27h415q239 0 353 -54q57 -27 104.5 -70t82 -100.5t54 -128t19.5 -150.5q0 -108 -32.5 -202.5t-101.5 -165t-177 -111t-259 -40.5h-458zM318 75 q45 -12 86.5 -16.5t73.5 -4.5q88 0 162.5 31.5t129 90.5t85.5 143.5t31 191.5q0 106 -30.5 190.5t-85 143.5t-131 90.5t-167.5 31.5q-33 0 -71 -5t-83 -17v-348h299v-86h-299v-436z" />
<glyph unicode="&#xd1;" horiz-adv-x="1114" d="M8 995v27h250l625 -766v590q0 46 -5 75t-20.5 45.5t-44 22.5t-76.5 6v27h357v-27q-48 0 -77 -6t-44.5 -22.5t-20 -45.5t-4.5 -75v-862h-26l-676 823v-629q0 -48 4.5 -77t19.5 -45t44 -21.5t77 -5.5v-29h-356v29q48 0 76.5 6t43.5 22.5t20 45.5t5 75v711 q-19 26 -35.5 45.5t-35 33t-43 20.5t-58.5 7zM294 1178q8 33 22 62t35 50t49.5 33t64.5 12q30 0 53 -10.5t45 -23.5t45 -23.5t53 -10.5q37 0 67.5 19.5t39.5 56.5h40q-3 -31 -17 -60.5t-36 -53t-50 -37.5t-61 -14q-42 0 -68 11t-48 24.5t-45.5 25t-60.5 11.5q-16 0 -31 -6.5 t-27 -16.5t-20.5 -23t-9.5 -26h-40z" />
<glyph unicode="&#xd2;" horiz-adv-x="1114" d="M53 514q0 111 37.5 207.5t105.5 168t162 113t207 41.5q111 0 201 -42.5t154.5 -115t99.5 -168.5t35 -202q0 -109 -36 -207t-101.5 -172.5t-158 -118t-206.5 -43.5t-206.5 43t-158 116.5t-100.5 171.5t-35 208zM227 518q0 -51 6 -107t21 -110t39 -103t60 -86t85 -59 t113 -22q67 0 117.5 20t87.5 54.5t61.5 81t39 99t20.5 109t6 111.5q0 56 -5.5 114t-19.5 112t-38 101t-61 82t-89 55.5t-121 20.5q-64 0 -112.5 -20.5t-84.5 -55.5t-60 -82t-38.5 -99.5t-20.5 -108t-6 -107.5zM346 1323q0 58 47 58q40 0 90 -50l215 -215h-63l-221 140 q-68 42 -68 67z" />
<glyph unicode="&#xd3;" horiz-adv-x="1114" d="M53 514q0 111 37.5 207.5t105.5 168t162 113t207 41.5q111 0 201 -42.5t154.5 -115t99.5 -168.5t35 -202q0 -109 -36 -207t-101.5 -172.5t-158 -118t-206.5 -43.5t-206.5 43t-158 116.5t-100.5 171.5t-35 208zM227 518q0 -51 6 -107t21 -110t39 -103t60 -86t85 -59 t113 -22q67 0 117.5 20t87.5 54.5t61.5 81t39 99t20.5 109t6 111.5q0 56 -5.5 114t-19.5 112t-38 101t-61 82t-89 55.5t-121 20.5q-64 0 -112.5 -20.5t-84.5 -55.5t-60 -82t-38.5 -99.5t-20.5 -108t-6 -107.5zM415 1116l213 215q19 19 42 34t51 15q19 0 29.5 -14t10.5 -31 q0 -26 -18 -44.5t-43 -34.5l-223 -140h-62z" />
<glyph unicode="&#xd4;" horiz-adv-x="1114" d="M53 514q0 111 37.5 207.5t105.5 168t162 113t207 41.5q111 0 201 -42.5t154.5 -115t99.5 -168.5t35 -202q0 -109 -36 -207t-101.5 -172.5t-158 -118t-206.5 -43.5t-206.5 43t-158 116.5t-100.5 171.5t-35 208zM227 518q0 -51 6 -107t21 -110t39 -103t60 -86t85 -59 t113 -22q67 0 117.5 20t87.5 54.5t61.5 81t39 99t20.5 109t6 111.5q0 56 -5.5 114t-19.5 112t-38 101t-61 82t-89 55.5t-121 20.5q-64 0 -112.5 -20.5t-84.5 -55.5t-60 -82t-38.5 -99.5t-20.5 -108t-6 -107.5zM312 1106l195 258h96l192 -258h-53l-188 160l-189 -160h-53z " />
<glyph unicode="&#xd5;" horiz-adv-x="1114" d="M53 514q0 111 37.5 207.5t105.5 168t162 113t207 41.5q111 0 201 -42.5t154.5 -115t99.5 -168.5t35 -202q0 -109 -36 -207t-101.5 -172.5t-158 -118t-206.5 -43.5t-206.5 43t-158 116.5t-100.5 171.5t-35 208zM227 518q0 -51 6 -107t21 -110t39 -103t60 -86t85 -59 t113 -22q67 0 117.5 20t87.5 54.5t61.5 81t39 99t20.5 109t6 111.5q0 56 -5.5 114t-19.5 112t-38 101t-61 82t-89 55.5t-121 20.5q-64 0 -112.5 -20.5t-84.5 -55.5t-60 -82t-38.5 -99.5t-20.5 -108t-6 -107.5zM297 1178q8 33 22 62t35 50t49.5 33t64.5 12q30 0 53 -10.5 t45 -23.5t45 -23.5t53 -10.5q37 0 67.5 19.5t39.5 56.5h40q-3 -31 -17 -60.5t-36 -53t-50 -37.5t-61 -14q-42 0 -68 11t-48 24.5t-45.5 25t-60.5 11.5q-16 0 -31 -6.5t-27 -16.5t-20.5 -23t-9.5 -26h-40z" />
<glyph unicode="&#xd6;" horiz-adv-x="1114" d="M53 514q0 111 37.5 207.5t105.5 168t162 113t207 41.5q111 0 201 -42.5t154.5 -115t99.5 -168.5t35 -202q0 -109 -36 -207t-101.5 -172.5t-158 -118t-206.5 -43.5t-206.5 43t-158 116.5t-100.5 171.5t-35 208zM227 518q0 -51 6 -107t21 -110t39 -103t60 -86t85 -59 t113 -22q67 0 117.5 20t87.5 54.5t61.5 81t39 99t20.5 109t6 111.5q0 56 -5.5 114t-19.5 112t-38 101t-61 82t-89 55.5t-121 20.5q-64 0 -112.5 -20.5t-84.5 -55.5t-60 -82t-38.5 -99.5t-20.5 -108t-6 -107.5zM312 1246q0 15 6.5 28.5t17 24t24 16.5t28.5 6q31 0 54.5 -22 t23.5 -53q0 -16 -6.5 -30.5t-17 -25t-25 -16.5t-29.5 -6q-31 0 -53.5 23.5t-22.5 54.5zM619 1246q0 15 6.5 28.5t17.5 24t25 16.5t29 6q31 0 53.5 -22t22.5 -53q0 -16 -6 -30.5t-16.5 -25t-24.5 -16.5t-29 -6q-31 0 -54.5 23.5t-23.5 54.5z" />
<glyph unicode="&#xd7;" horiz-adv-x="915" d="M137 147l275 275l-275 272l45 45l273 -274l274 274l43 -45l-272 -272l272 -275l-43 -43l-274 273l-273 -273z" />
<glyph unicode="&#xd8;" horiz-adv-x="1116" d="M55 523q0 110 39 205.5t107 166t160 111t198 40.5q171 0 306 -113l99 122l45 -33l-103 -125q41 -43 69.5 -85.5t46.5 -88.5t26 -96t8 -108q0 -118 -40.5 -217.5t-109 -172t-158 -113t-187.5 -40.5q-38 0 -78.5 6.5t-81 20t-80 34t-73.5 48.5l-96 -121l-45 36l100 123 q-152 155 -152 400zM227 526q0 -174 55 -308l520 638q-87 136 -248 136q-95 0 -157.5 -42.5t-100.5 -110t-53.5 -150t-15.5 -163.5zM313 163q52 -74 110 -103t127 -29q70 0 130.5 25t105.5 80.5t71 144t26 214.5q0 39 -1.5 73.5t-7 70.5t-16 75.5t-29.5 87.5z" />
<glyph unicode="&#xd9;" horiz-adv-x="1114" d="M23 995v27h411v-27q-44 0 -70 -8t-40 -26.5t-18.5 -47.5t-4.5 -71v-447q0 -71 9.5 -135.5t38 -113t81 -77t137.5 -28.5q69 0 132 22t114 70q25 23 39 60.5t21 79t8.5 82.5t1.5 73v414q0 48 -4.5 77.5t-20 46.5t-44.5 23t-77 6v27h363v-27q-46 0 -75 -8.5t-45 -27t-22 -49 t-6 -74.5v-416q0 -105 -19.5 -187.5t-65 -139.5t-121.5 -87.5t-189 -30.5q-125 0 -203.5 31t-122.5 90.5t-59.5 146t-15.5 197.5v402q0 42 -4 71t-17.5 47.5t-40 26.5t-71.5 8zM353 1323q0 58 47 58q40 0 90 -50l215 -215h-63l-221 140q-68 42 -68 67z" />
<glyph unicode="&#xda;" horiz-adv-x="1114" d="M23 995v27h411v-27q-44 0 -70 -8t-40 -26.5t-18.5 -47.5t-4.5 -71v-447q0 -71 9.5 -135.5t38 -113t81 -77t137.5 -28.5q69 0 132 22t114 70q25 23 39 60.5t21 79t8.5 82.5t1.5 73v414q0 48 -4.5 77.5t-20 46.5t-44.5 23t-77 6v27h363v-27q-46 0 -75 -8.5t-45 -27t-22 -49 t-6 -74.5v-416q0 -105 -19.5 -187.5t-65 -139.5t-121.5 -87.5t-189 -30.5q-125 0 -203.5 31t-122.5 90.5t-59.5 146t-15.5 197.5v402q0 42 -4 71t-17.5 47.5t-40 26.5t-71.5 8zM422 1116l213 215q19 19 42 34t51 15q19 0 29.5 -14t10.5 -31q0 -26 -18 -44.5t-43 -34.5 l-223 -140h-62z" />
<glyph unicode="&#xdb;" horiz-adv-x="1114" d="M23 995v27h411v-27q-44 0 -70 -8t-40 -26.5t-18.5 -47.5t-4.5 -71v-447q0 -71 9.5 -135.5t38 -113t81 -77t137.5 -28.5q69 0 132 22t114 70q25 23 39 60.5t21 79t8.5 82.5t1.5 73v414q0 48 -4.5 77.5t-20 46.5t-44.5 23t-77 6v27h363v-27q-46 0 -75 -8.5t-45 -27t-22 -49 t-6 -74.5v-416q0 -105 -19.5 -187.5t-65 -139.5t-121.5 -87.5t-189 -30.5q-125 0 -203.5 31t-122.5 90.5t-59.5 146t-15.5 197.5v402q0 42 -4 71t-17.5 47.5t-40 26.5t-71.5 8zM319 1106l195 258h96l192 -258h-53l-188 160l-189 -160h-53z" />
<glyph unicode="&#xdc;" horiz-adv-x="1114" d="M23 995v27h411v-27q-44 0 -70 -8t-40 -26.5t-18.5 -47.5t-4.5 -71v-447q0 -71 9.5 -135.5t38 -113t81 -77t137.5 -28.5q69 0 132 22t114 70q25 23 39 60.5t21 79t8.5 82.5t1.5 73v414q0 48 -4.5 77.5t-20 46.5t-44.5 23t-77 6v27h363v-27q-46 0 -75 -8.5t-45 -27t-22 -49 t-6 -74.5v-416q0 -105 -19.5 -187.5t-65 -139.5t-121.5 -87.5t-189 -30.5q-125 0 -203.5 31t-122.5 90.5t-59.5 146t-15.5 197.5v402q0 42 -4 71t-17.5 47.5t-40 26.5t-71.5 8zM319 1246q0 15 6.5 28.5t17 24t24 16.5t28.5 6q31 0 54.5 -22t23.5 -53q0 -16 -6.5 -30.5 t-17 -25t-25 -16.5t-29.5 -6q-31 0 -53.5 23.5t-22.5 54.5zM626 1246q0 15 6.5 28.5t17.5 24t25 16.5t29 6q31 0 53.5 -22t22.5 -53q0 -16 -6 -30.5t-16.5 -25t-24.5 -16.5t-29 -6q-31 0 -54.5 23.5t-23.5 54.5z" />
<glyph unicode="&#xdd;" horiz-adv-x="1114" d="M14 995v27h437v-27q-16 0 -36.5 -2t-38.5 -8.5t-30 -20t-12 -36.5q0 -15 18.5 -51.5t47 -83t61.5 -97t61.5 -93t48 -71.5t21.5 -32l203 315q6 10 14 23t15 27.5t11.5 29.5t4.5 27q0 21 -10 35t-25 22.5t-33 12t-35 3.5v27h357v-27q-38 0 -66 -10t-51 -28.5t-43 -44.5 t-41 -59l-268 -419v-256q0 -47 5 -76t20 -45.5t43.5 -22t76.5 -5.5v-29h-434v29q48 0 76 6t42.5 22.5t18.5 45.5t4 75v242l-278 428q-16 25 -34.5 51t-40.5 47.5t-49 35t-61 13.5zM415 1116l213 215q19 19 42 34t51 15q19 0 29.5 -14t10.5 -31q0 -26 -18 -44.5t-43 -34.5 l-223 -140h-62z" />
<glyph unicode="&#xde;" horiz-adv-x="859" d="M28 0v28h27q38 0 61 8.5t35 26.5t16 47t4 71v660q0 37 -3.5 66t-15.5 48.5t-34.5 29.5t-60.5 10h-29v27h436v-27h-32q-36 0 -58.5 -10t-35 -29.5t-17.5 -48.5t-5 -66v-50h127q77 0 142.5 -18.5t113.5 -53.5t75 -87t27 -119q0 -69 -27 -122t-75 -88.5t-114 -54t-145 -18.5 h-124v-46q0 -38 3.5 -67t15.5 -49t35 -30t62 -10h32v-28h-436zM316 282h44q72 0 122 17.5t82 48.5t46.5 73t14.5 90q0 53 -17.5 94.5t-49 70t-74 43t-92.5 14.5h-76v-451z" />
<glyph unicode="&#xdf;" horiz-adv-x="773" d="M27 0v28q29 1 48 7t30.5 21.5t16 42.5t4.5 70v561q0 91 17.5 156.5t51.5 106.5t84 60.5t116 19.5q60 0 109.5 -18t84 -50t53.5 -77.5t19 -99.5q0 -29 -5.5 -58.5t-21 -56.5t-43.5 -51t-74 -43q99 -28 152.5 -101.5t53.5 -199.5q0 -65 -17.5 -124t-50.5 -104t-80 -72 t-106 -27q-31 0 -57.5 9t-46 25t-30.5 38.5t-11 49.5q0 29 15 47t45 18t46.5 -16t16.5 -43q0 -11 -4.5 -27.5t-4.5 -23.5q0 -17 12.5 -26t31.5 -9q50 0 81 50.5t31 152.5q0 77 -13 139.5t-40 107.5t-69 70.5t-99 30.5v43q38 0 68 10.5t51 34.5t32 63t11 97q0 51 -10.5 87 t-30 59t-46 33.5t-58.5 10.5q-30 0 -55.5 -9.5t-43.5 -35.5t-28.5 -73.5t-10.5 -122.5v-781h-225z" />
<glyph unicode="&#xe0;" horiz-adv-x="686" d="M55 164q0 42 19.5 77t51.5 64t73 52.5t84 42t84 32.5t73 25v28q0 35 -4.5 67.5t-18.5 58t-39 40.5t-67 15q-35 0 -55 -9.5t-30.5 -27t-13.5 -41t-3 -51.5q0 -34 -13 -53t-51 -19q-35 0 -49 20t-14 52q0 47 25 80t62.5 54t81.5 30.5t83 9.5q65 0 109.5 -12.5t71.5 -41 t38.5 -73.5t11.5 -109v-235v-32t0.5 -33.5t1 -31t2.5 -24.5q2 -14 9 -25.5t24 -11.5q8 0 20 7.5t24 17.5t22.5 20t15.5 16v-43q-14 -19 -31.5 -39.5t-38 -37t-44.5 -27t-50 -10.5q-24 0 -39.5 10t-24.5 26.5t-12.5 36.5t-3.5 41l-50 -40t-52 -36.5t-56 -27t-63 -10.5 q-39 0 -69.5 13.5t-51.5 37.5t-32 56.5t-11 70.5zM128 993q0 58 47 58q40 0 90 -50l215 -215h-63l-221 140q-68 42 -68 67zM182 199q0 -23 7 -45t21 -40t33.5 -29t45.5 -11q20 0 40 7t39.5 18.5t38 25t33.5 25.5v264q-38 -14 -83 -34t-84 -46.5t-65 -60t-26 -74.5z" />
<glyph unicode="&#xe1;" horiz-adv-x="686" d="M55 164q0 42 19.5 77t51.5 64t73 52.5t84 42t84 32.5t73 25v28q0 35 -4.5 67.5t-18.5 58t-39 40.5t-67 15q-35 0 -55 -9.5t-30.5 -27t-13.5 -41t-3 -51.5q0 -34 -13 -53t-51 -19q-35 0 -49 20t-14 52q0 47 25 80t62.5 54t81.5 30.5t83 9.5q65 0 109.5 -12.5t71.5 -41 t38.5 -73.5t11.5 -109v-235v-32t0.5 -33.5t1 -31t2.5 -24.5q2 -14 9 -25.5t24 -11.5q8 0 20 7.5t24 17.5t22.5 20t15.5 16v-43q-14 -19 -31.5 -39.5t-38 -37t-44.5 -27t-50 -10.5q-24 0 -39.5 10t-24.5 26.5t-12.5 36.5t-3.5 41l-50 -40t-52 -36.5t-56 -27t-63 -10.5 q-39 0 -69.5 13.5t-51.5 37.5t-32 56.5t-11 70.5zM182 199q0 -23 7 -45t21 -40t33.5 -29t45.5 -11q20 0 40 7t39.5 18.5t38 25t33.5 25.5v264q-38 -14 -83 -34t-84 -46.5t-65 -60t-26 -74.5zM197 786l213 215q19 19 42 34t51 15q19 0 29.5 -14t10.5 -31q0 -26 -18 -44.5 t-43 -34.5l-223 -140h-62z" />
<glyph unicode="&#xe2;" horiz-adv-x="686" d="M55 164q0 42 19.5 77t51.5 64t73 52.5t84 42t84 32.5t73 25v28q0 35 -4.5 67.5t-18.5 58t-39 40.5t-67 15q-35 0 -55 -9.5t-30.5 -27t-13.5 -41t-3 -51.5q0 -34 -13 -53t-51 -19q-35 0 -49 20t-14 52q0 47 25 80t62.5 54t81.5 30.5t83 9.5q65 0 109.5 -12.5t71.5 -41 t38.5 -73.5t11.5 -109v-235v-32t0.5 -33.5t1 -31t2.5 -24.5q2 -14 9 -25.5t24 -11.5q8 0 20 7.5t24 17.5t22.5 20t15.5 16v-43q-14 -19 -31.5 -39.5t-38 -37t-44.5 -27t-50 -10.5q-24 0 -39.5 10t-24.5 26.5t-12.5 36.5t-3.5 41l-50 -40t-52 -36.5t-56 -27t-63 -10.5 q-39 0 -69.5 13.5t-51.5 37.5t-32 56.5t-11 70.5zM94 776l195 258h96l192 -258h-53l-188 160l-189 -160h-53zM182 199q0 -23 7 -45t21 -40t33.5 -29t45.5 -11q20 0 40 7t39.5 18.5t38 25t33.5 25.5v264q-38 -14 -83 -34t-84 -46.5t-65 -60t-26 -74.5z" />
<glyph unicode="&#xe3;" horiz-adv-x="686" d="M55 164q0 42 19.5 77t51.5 64t73 52.5t84 42t84 32.5t73 25v28q0 35 -4.5 67.5t-18.5 58t-39 40.5t-67 15q-35 0 -55 -9.5t-30.5 -27t-13.5 -41t-3 -51.5q0 -34 -13 -53t-51 -19q-35 0 -49 20t-14 52q0 47 25 80t62.5 54t81.5 30.5t83 9.5q65 0 109.5 -12.5t71.5 -41 t38.5 -73.5t11.5 -109v-235v-32t0.5 -33.5t1 -31t2.5 -24.5q2 -14 9 -25.5t24 -11.5q8 0 20 7.5t24 17.5t22.5 20t15.5 16v-43q-14 -19 -31.5 -39.5t-38 -37t-44.5 -27t-50 -10.5q-24 0 -39.5 10t-24.5 26.5t-12.5 36.5t-3.5 41l-50 -40t-52 -36.5t-56 -27t-63 -10.5 q-39 0 -69.5 13.5t-51.5 37.5t-32 56.5t-11 70.5zM79 848q8 33 22 62t35 50t49.5 33t64.5 12q30 0 53 -10.5t45 -23.5t45 -23.5t53 -10.5q37 0 67.5 19.5t39.5 56.5h40q-3 -31 -17 -60.5t-36 -53t-50 -37.5t-61 -14q-42 0 -68 11t-48 24.5t-45.5 25t-60.5 11.5 q-16 0 -31 -6.5t-27 -16.5t-20.5 -23t-9.5 -26h-40zM182 199q0 -23 7 -45t21 -40t33.5 -29t45.5 -11q20 0 40 7t39.5 18.5t38 25t33.5 25.5v264q-38 -14 -83 -34t-84 -46.5t-65 -60t-26 -74.5z" />
<glyph unicode="&#xe4;" horiz-adv-x="686" d="M55 164q0 42 19.5 77t51.5 64t73 52.5t84 42t84 32.5t73 25v28q0 35 -4.5 67.5t-18.5 58t-39 40.5t-67 15q-35 0 -55 -9.5t-30.5 -27t-13.5 -41t-3 -51.5q0 -34 -13 -53t-51 -19q-35 0 -49 20t-14 52q0 47 25 80t62.5 54t81.5 30.5t83 9.5q65 0 109.5 -12.5t71.5 -41 t38.5 -73.5t11.5 -109v-235v-32t0.5 -33.5t1 -31t2.5 -24.5q2 -14 9 -25.5t24 -11.5q8 0 20 7.5t24 17.5t22.5 20t15.5 16v-43q-14 -19 -31.5 -39.5t-38 -37t-44.5 -27t-50 -10.5q-24 0 -39.5 10t-24.5 26.5t-12.5 36.5t-3.5 41l-50 -40t-52 -36.5t-56 -27t-63 -10.5 q-39 0 -69.5 13.5t-51.5 37.5t-32 56.5t-11 70.5zM94 916q0 15 6.5 28.5t17 24t24 16.5t28.5 6q31 0 54.5 -22t23.5 -53q0 -16 -6.5 -30.5t-17 -25t-25 -16.5t-29.5 -6q-31 0 -53.5 23.5t-22.5 54.5zM182 199q0 -23 7 -45t21 -40t33.5 -29t45.5 -11q20 0 40 7t39.5 18.5 t38 25t33.5 25.5v264q-38 -14 -83 -34t-84 -46.5t-65 -60t-26 -74.5zM401 916q0 15 6.5 28.5t17.5 24t25 16.5t29 6q31 0 53.5 -22t22.5 -53q0 -16 -6 -30.5t-16.5 -25t-24.5 -16.5t-29 -6q-31 0 -54.5 23.5t-23.5 54.5z" />
<glyph unicode="&#xe5;" horiz-adv-x="686" d="M55 164q0 42 19.5 77t51.5 64t73 52.5t84 42t84 32.5t73 25v28q0 35 -4.5 67.5t-18.5 58t-39 40.5t-67 15q-35 0 -55 -9.5t-30.5 -27t-13.5 -41t-3 -51.5q0 -34 -13 -53t-51 -19q-35 0 -49 20t-14 52q0 47 25 80t62.5 54t81.5 30.5t83 9.5q65 0 109.5 -12.5t71.5 -41 t38.5 -73.5t11.5 -109v-235v-32t0.5 -33.5t1 -31t2.5 -24.5q2 -14 9 -25.5t24 -11.5q8 0 20 7.5t24 17.5t22.5 20t15.5 16v-43q-14 -19 -31.5 -39.5t-38 -37t-44.5 -27t-50 -10.5q-24 0 -39.5 10t-24.5 26.5t-12.5 36.5t-3.5 41l-50 -40t-52 -36.5t-56 -27t-63 -10.5 q-39 0 -69.5 13.5t-51.5 37.5t-32 56.5t-11 70.5zM182 199q0 -23 7 -45t21 -40t33.5 -29t45.5 -11q20 0 40 7t39.5 18.5t38 25t33.5 25.5v264q-38 -14 -83 -34t-84 -46.5t-65 -60t-26 -74.5zM192 930q0 32 12 58.5t32 45.5t46.5 29.5t55.5 10.5q27 0 52.5 -10t45.5 -28.5 t32 -45.5t12 -60q0 -32 -12 -58.5t-32 -45.5t-45.5 -29.5t-52.5 -10.5t-53 10.5t-47 29.5t-33.5 45.5t-12.5 58.5zM244 930q0 -22 8 -39t21 -29t30 -18t35 -6q19 0 35.5 7.5t28.5 20t19 29.5t7 35q0 21 -7.5 38t-20 29t-29 18.5t-33.5 6.5q-38 0 -66 -25.5t-28 -66.5z" />
<glyph unicode="&#xe6;" horiz-adv-x="1031" d="M55 152q0 52 20 90t64 70.5t114.5 64.5t171.5 73v69q0 83 -30 116.5t-82 33.5q-49 0 -78.5 -23.5t-29.5 -57.5q0 -17 1.5 -29t1.5 -23q0 -32 -19 -50t-42 -18q-37 0 -52.5 21.5t-15.5 50.5q0 28 15 58t46 55t79 41t114 16q94 0 141 -25.5t62 -65.5q37 51 86 71t116 20 q112 0 178 -73t68 -209h-431v-54q0 -61 10 -113t33 -89.5t60 -58.5t90 -21q11 0 36 2.5t56 18t63.5 49.5t58.5 96l24 -17q-14 -51 -36.5 -98.5t-56.5 -84t-80 -58.5t-107 -22q-49 0 -84 10t-60.5 26.5t-44 38.5t-33.5 46q-17 -14 -42 -35t-58 -40t-73 -32.5t-85 -13.5 q-35 0 -65.5 13.5t-53.5 37t-36.5 55.5t-13.5 68zM183 194q0 -28 9.5 -52.5t25.5 -43t38 -29t47 -10.5q15 0 29.5 3.5t32.5 12.5t41 24.5t55 40.5q-8 15 -14.5 37t-11.5 47.5t-7.5 54t-2.5 55.5v67q-42 -16 -85.5 -34.5t-78 -42.5t-56.5 -55.5t-22 -74.5zM553 477h286 q-1 48 -12 82.5t-29.5 56.5t-43.5 32t-54 10t-55.5 -11t-46.5 -33.5t-32 -56.5t-13 -80z" />
<glyph unicode="&#xe7;" horiz-adv-x="686" d="M51 344q0 72 23 138.5t66 117.5t104 81t137 30q34 0 75.5 -10.5t76.5 -31.5t59 -52t24 -72q0 -34 -19.5 -49t-51.5 -15q-34 0 -50 13.5t-23 33.5t-10 43.5t-12.5 43.5t-30.5 33.5t-63 13.5q-50 0 -84.5 -23.5t-55.5 -60.5t-30.5 -81.5t-9.5 -86.5q0 -51 12 -106t39 -101 t69.5 -75.5t102.5 -29.5q42 0 75 14t58.5 38t45 55.5t34.5 66.5l23 -10q-8 -47 -27 -91.5t-48.5 -82t-68.5 -65t-85 -38.5l-39 -100q11 2 21.5 3t21.5 1q25 0 48.5 -6.5t41.5 -19.5t28.5 -33t10.5 -48q0 -36 -20 -60.5t-50 -40t-65 -22t-64 -6.5q-62 0 -125 23l23 49 q49 -19 96 -19q17 0 33 3t29 10.5t20.5 20t7.5 32.5q0 34 -20 46.5t-51 12.5q-14 0 -28 -1.5t-28 -6.5l-10 8l60 146h-1q-75 0 -130.5 32.5t-92 85t-54.5 118t-18 131.5z" />
<glyph unicode="&#xe8;" horiz-adv-x="686" d="M57 338q0 75 19.5 142.5t59 118.5t100 81.5t141.5 30.5q62 0 111 -21t83 -58.5t52 -89t18 -112.5h-477q0 -56 15 -114t46 -105.5t78.5 -78t112.5 -30.5q40 0 71.5 12.5t56 35t42.5 53t32 65.5l23 -16q-8 -54 -31.5 -103.5t-60.5 -87.5t-85.5 -61t-105.5 -23 q-74 0 -130.5 31t-94.5 82t-57 115.5t-19 132.5zM164 473h319q0 34 -8.5 67.5t-27 59t-46.5 41.5t-67 16t-69 -15.5t-51.5 -41t-34 -59t-15.5 -68.5zM167 993q0 58 47 58q40 0 90 -50l215 -215h-63l-221 140q-68 42 -68 67z" />
<glyph unicode="&#xe9;" horiz-adv-x="686" d="M57 338q0 75 19.5 142.5t59 118.5t100 81.5t141.5 30.5q62 0 111 -21t83 -58.5t52 -89t18 -112.5h-477q0 -56 15 -114t46 -105.5t78.5 -78t112.5 -30.5q40 0 71.5 12.5t56 35t42.5 53t32 65.5l23 -16q-8 -54 -31.5 -103.5t-60.5 -87.5t-85.5 -61t-105.5 -23 q-74 0 -130.5 31t-94.5 82t-57 115.5t-19 132.5zM164 473h319q0 34 -8.5 67.5t-27 59t-46.5 41.5t-67 16t-69 -15.5t-51.5 -41t-34 -59t-15.5 -68.5zM236 786l213 215q19 19 42 34t51 15q19 0 29.5 -14t10.5 -31q0 -26 -18 -44.5t-43 -34.5l-223 -140h-62z" />
<glyph unicode="&#xea;" horiz-adv-x="686" d="M57 338q0 75 19.5 142.5t59 118.5t100 81.5t141.5 30.5q62 0 111 -21t83 -58.5t52 -89t18 -112.5h-477q0 -56 15 -114t46 -105.5t78.5 -78t112.5 -30.5q40 0 71.5 12.5t56 35t42.5 53t32 65.5l23 -16q-8 -54 -31.5 -103.5t-60.5 -87.5t-85.5 -61t-105.5 -23 q-74 0 -130.5 31t-94.5 82t-57 115.5t-19 132.5zM133 776l195 258h96l192 -258h-53l-188 160l-189 -160h-53zM164 473h319q0 34 -8.5 67.5t-27 59t-46.5 41.5t-67 16t-69 -15.5t-51.5 -41t-34 -59t-15.5 -68.5z" />
<glyph unicode="&#xeb;" horiz-adv-x="686" d="M57 338q0 75 19.5 142.5t59 118.5t100 81.5t141.5 30.5q62 0 111 -21t83 -58.5t52 -89t18 -112.5h-477q0 -56 15 -114t46 -105.5t78.5 -78t112.5 -30.5q40 0 71.5 12.5t56 35t42.5 53t32 65.5l23 -16q-8 -54 -31.5 -103.5t-60.5 -87.5t-85.5 -61t-105.5 -23 q-74 0 -130.5 31t-94.5 82t-57 115.5t-19 132.5zM133 916q0 15 6.5 28.5t17 24t24 16.5t28.5 6q31 0 54.5 -22t23.5 -53q0 -16 -6.5 -30.5t-17 -25t-25 -16.5t-29.5 -6q-31 0 -53.5 23.5t-22.5 54.5zM164 473h319q0 34 -8.5 67.5t-27 59t-46.5 41.5t-67 16t-69 -15.5 t-51.5 -41t-34 -59t-15.5 -68.5zM440 916q0 15 6.5 28.5t17.5 24t25 16.5t29 6q31 0 53.5 -22t22.5 -53q0 -16 -6 -30.5t-16.5 -25t-24.5 -16.5t-29 -6q-31 0 -54.5 23.5t-23.5 54.5z" />
<glyph unicode="&#xec;" horiz-adv-x="430" d="M13 993q0 58 47 58q40 0 90 -50l215 -215h-63l-221 140q-68 42 -68 67zM47 627l209 84h33v-570q0 -33 4 -54.5t15.5 -34.5t32 -18t54.5 -5v-29h-338v29q34 0 55 5t32.5 18t15.5 34.5t4 54.5v379q0 17 -2 33.5t-7.5 29.5t-16 21t-27.5 8q-12 0 -26 -3.5t-28 -8.5z" />
<glyph unicode="&#xed;" horiz-adv-x="430" d="M47 627l209 84h33v-570q0 -33 4 -54.5t15.5 -34.5t32 -18t54.5 -5v-29h-338v29q34 0 55 5t32.5 18t15.5 34.5t4 54.5v379q0 17 -2 33.5t-7.5 29.5t-16 21t-27.5 8q-12 0 -26 -3.5t-28 -8.5zM82 786l213 215q19 19 42 34t51 15q19 0 29.5 -14t10.5 -31q0 -26 -18 -44.5 t-43 -34.5l-223 -140h-62z" />
<glyph unicode="&#xee;" horiz-adv-x="430" d="M-21 776l195 258h96l192 -258h-53l-188 160l-189 -160h-53zM47 627l209 84h33v-570q0 -33 4 -54.5t15.5 -34.5t32 -18t54.5 -5v-29h-338v29q34 0 55 5t32.5 18t15.5 34.5t4 54.5v379q0 17 -2 33.5t-7.5 29.5t-16 21t-27.5 8q-12 0 -26 -3.5t-28 -8.5z" />
<glyph unicode="&#xef;" horiz-adv-x="430" d="M-21 916q0 15 6.5 28.5t17 24t24 16.5t28.5 6q31 0 54.5 -22t23.5 -53q0 -16 -6.5 -30.5t-17 -25t-25 -16.5t-29.5 -6q-31 0 -53.5 23.5t-22.5 54.5zM47 627l209 84h33v-570q0 -33 4 -54.5t15.5 -34.5t32 -18t54.5 -5v-29h-338v29q34 0 55 5t32.5 18t15.5 34.5t4 54.5 v379q0 17 -2 33.5t-7.5 29.5t-16 21t-27.5 8q-12 0 -26 -3.5t-28 -8.5zM286 916q0 15 6.5 28.5t17.5 24t25 16.5t29 6q31 0 53.5 -22t22.5 -53q0 -16 -6 -30.5t-16.5 -25t-24.5 -16.5t-29 -6q-31 0 -54.5 23.5t-23.5 54.5z" />
<glyph unicode="&#xf0;" horiz-adv-x="773" d="M51 333q0 72 23.5 139t66 118.5t101 82.5t127.5 31q16 0 29.5 -0.5t27.5 -4.5t31 -13t39 -25q-30 62 -65 117t-78 105l-187 -103l-20 42l175 99q-25 25 -42 41t-32 28.5t-30.5 23.5t-36.5 26l19 33q46 -23 92 -52t95 -64l188 104l26 -42l-173 -98q69 -62 123 -131 t91 -141.5t56 -146t19 -145.5t-23 -140t-66.5 -121t-106.5 -85.5t-143 -32.5q-69 0 -128.5 27t-103.5 74.5t-69 112.5t-25 141zM190 391q0 -75 16 -140t45 -113.5t70 -76.5t92 -28q35 0 65 14t52 44.5t34.5 78t12.5 114.5q0 86 -15.5 155.5t-44 118t-68.5 75t-88 26.5 q-33 0 -64 -13t-54.5 -44t-38 -82.5t-14.5 -128.5z" />
<glyph unicode="&#xf1;" d="M8 627l211 84h31v-146q21 25 46.5 51t54.5 47t62 34.5t68 13.5q56 0 91.5 -23t55.5 -60.5t27 -84t7 -92.5v-295q0 -33 3 -57t13.5 -39.5t32 -23t59.5 -7.5v-29h-346v29q39 0 61.5 6t34 20.5t14.5 39t3 61.5v282q0 29 -2.5 61t-13.5 58.5t-33 43.5t-60 17q-27 0 -52 -8.5 t-47.5 -22t-42 -31.5t-36.5 -36v-364q0 -36 3 -60.5t14 -39.5t33.5 -21t61.5 -6v-29h-344v29q38 0 59 7.5t31.5 23t12.5 39.5t2 57v318q0 26 -1.5 50.5t-7 44t-16 31.5t-28.5 12q-13 0 -26 -3.5t-26 -8.5zM132 848q8 33 22 62t35 50t49.5 33t64.5 12q30 0 53 -10.5t45 -23.5 t45 -23.5t53 -10.5q37 0 67.5 19.5t39.5 56.5h40q-3 -31 -17 -60.5t-36 -53t-50 -37.5t-61 -14q-42 0 -68 11t-48 24.5t-45.5 25t-60.5 11.5q-16 0 -31 -6.5t-27 -16.5t-20.5 -23t-9.5 -26h-40z" />
<glyph unicode="&#xf2;" d="M51 338q0 73 23.5 140t67.5 119t106 83t139 31q75 0 136.5 -27.5t105 -75.5t67 -112.5t23.5 -137.5q0 -75 -23.5 -144t-67.5 -121.5t-107 -84t-142 -31.5q-75 0 -135.5 30t-103 80.5t-66 115.5t-23.5 135zM177 993q0 58 47 58q40 0 90 -50l215 -215h-63l-221 140 q-68 42 -68 67zM193 401q0 -33 4.5 -73t14.5 -81t26.5 -79.5t40.5 -68.5t56.5 -48t74.5 -18q54 0 87 25.5t51 65t24 86.5t6 89q0 33 -4 73t-14 80.5t-26 78t-40 67t-57 47t-75 17.5q-51 0 -84 -25.5t-52 -64t-26 -84.5t-7 -87z" />
<glyph unicode="&#xf3;" d="M51 338q0 73 23.5 140t67.5 119t106 83t139 31q75 0 136.5 -27.5t105 -75.5t67 -112.5t23.5 -137.5q0 -75 -23.5 -144t-67.5 -121.5t-107 -84t-142 -31.5q-75 0 -135.5 30t-103 80.5t-66 115.5t-23.5 135zM193 401q0 -33 4.5 -73t14.5 -81t26.5 -79.5t40.5 -68.5 t56.5 -48t74.5 -18q54 0 87 25.5t51 65t24 86.5t6 89q0 33 -4 73t-14 80.5t-26 78t-40 67t-57 47t-75 17.5q-51 0 -84 -25.5t-52 -64t-26 -84.5t-7 -87zM246 786l213 215q19 19 42 34t51 15q19 0 29.5 -14t10.5 -31q0 -26 -18 -44.5t-43 -34.5l-223 -140h-62z" />
<glyph unicode="&#xf4;" d="M51 338q0 73 23.5 140t67.5 119t106 83t139 31q75 0 136.5 -27.5t105 -75.5t67 -112.5t23.5 -137.5q0 -75 -23.5 -144t-67.5 -121.5t-107 -84t-142 -31.5q-75 0 -135.5 30t-103 80.5t-66 115.5t-23.5 135zM143 776l195 258h96l192 -258h-53l-188 160l-189 -160h-53z M193 401q0 -33 4.5 -73t14.5 -81t26.5 -79.5t40.5 -68.5t56.5 -48t74.5 -18q54 0 87 25.5t51 65t24 86.5t6 89q0 33 -4 73t-14 80.5t-26 78t-40 67t-57 47t-75 17.5q-51 0 -84 -25.5t-52 -64t-26 -84.5t-7 -87z" />
<glyph unicode="&#xf5;" d="M51 338q0 73 23.5 140t67.5 119t106 83t139 31q75 0 136.5 -27.5t105 -75.5t67 -112.5t23.5 -137.5q0 -75 -23.5 -144t-67.5 -121.5t-107 -84t-142 -31.5q-75 0 -135.5 30t-103 80.5t-66 115.5t-23.5 135zM128 848q8 33 22 62t35 50t49.5 33t64.5 12q30 0 53 -10.5 t45 -23.5t45 -23.5t53 -10.5q37 0 67.5 19.5t39.5 56.5h40q-3 -31 -17 -60.5t-36 -53t-50 -37.5t-61 -14q-42 0 -68 11t-48 24.5t-45.5 25t-60.5 11.5q-16 0 -31 -6.5t-27 -16.5t-20.5 -23t-9.5 -26h-40zM193 401q0 -33 4.5 -73t14.5 -81t26.5 -79.5t40.5 -68.5t56.5 -48 t74.5 -18q54 0 87 25.5t51 65t24 86.5t6 89q0 33 -4 73t-14 80.5t-26 78t-40 67t-57 47t-75 17.5q-51 0 -84 -25.5t-52 -64t-26 -84.5t-7 -87z" />
<glyph unicode="&#xf6;" d="M51 338q0 73 23.5 140t67.5 119t106 83t139 31q75 0 136.5 -27.5t105 -75.5t67 -112.5t23.5 -137.5q0 -75 -23.5 -144t-67.5 -121.5t-107 -84t-142 -31.5q-75 0 -135.5 30t-103 80.5t-66 115.5t-23.5 135zM143 916q0 15 6.5 28.5t17 24t24 16.5t28.5 6q31 0 54.5 -22 t23.5 -53q0 -16 -6.5 -30.5t-17 -25t-25 -16.5t-29.5 -6q-31 0 -53.5 23.5t-22.5 54.5zM193 401q0 -33 4.5 -73t14.5 -81t26.5 -79.5t40.5 -68.5t56.5 -48t74.5 -18q54 0 87 25.5t51 65t24 86.5t6 89q0 33 -4 73t-14 80.5t-26 78t-40 67t-57 47t-75 17.5q-51 0 -84 -25.5 t-52 -64t-26 -84.5t-7 -87zM450 916q0 15 6.5 28.5t17.5 24t25 16.5t29 6q31 0 53.5 -22t22.5 -53q0 -16 -6 -30.5t-16.5 -25t-24.5 -16.5t-29 -6q-31 0 -54.5 23.5t-23.5 54.5z" />
<glyph unicode="&#xf7;" horiz-adv-x="1485" d="M297 399v93h891v-93h-891zM653 207q0 18 7 34t19 28t28.5 19t35.5 7q38 0 63 -25.5t25 -62.5t-25 -62.5t-63 -25.5q-19 0 -35.5 7t-28.5 19t-19 28t-7 34zM653 684q0 18 7 34.5t19 29t28.5 19.5t35.5 7q38 0 63 -26.5t25 -63.5t-25 -62.5t-63 -25.5q-19 0 -35.5 7 t-28.5 19t-19 28t-7 34z" />
<glyph unicode="&#xf8;" horiz-adv-x="773" d="M30 -18l106 120q-18 22 -33 51t-25.5 61t-16.5 65.5t-6 63.5q0 63 22.5 128t65.5 118.5t105.5 87t143.5 33.5q31 0 58 -4t53 -13.5t51.5 -25.5t54.5 -40l100 111l34 -32l-101 -115q38 -51 59 -109.5t21 -124.5q0 -64 -21 -131t-63 -122t-106 -90.5t-150 -35.5 q-30 0 -56.5 4.5t-52 14.5t-52 27t-55.5 41l-101 -116zM196 401q0 -46 7 -95.5t23 -101.5l306 339q-21 34 -40 57t-38.5 36.5t-40 19t-44.5 5.5q-38 0 -69.5 -14t-54.5 -45t-36 -80.5t-13 -120.5zM247 155q20 -35 38 -58.5t37.5 -37.5t41.5 -20t49 -6q36 0 67 13.5t53.5 45 t35.5 83t13 128.5q0 89 -29 190z" />
<glyph unicode="&#xf9;" d="M0 662v28h244v-461q0 -30 4.5 -58t17 -50t35 -35.5t57.5 -13.5q25 0 49 9t46 23t41.5 31.5t35.5 34.5v391q0 31 -6.5 51t-20 31t-35 15t-50.5 4v28h237v-508q0 -11 1 -29t5.5 -34.5t14 -28.5t26.5 -12q30 0 62 12l10 -27l-209 -86h-35v148q-23 -25 -49 -51t-55.5 -47.5 t-62 -35.5t-68.5 -14q-56 0 -91 25t-54.5 64t-26 87t-6.5 93v309q0 34 -6 55t-20 32.5t-36.5 15.5t-54.5 4zM179 993q0 58 47 58q40 0 90 -50l215 -215h-63l-221 140q-68 42 -68 67z" />
<glyph unicode="&#xfa;" d="M0 662v28h244v-461q0 -30 4.5 -58t17 -50t35 -35.5t57.5 -13.5q25 0 49 9t46 23t41.5 31.5t35.5 34.5v391q0 31 -6.5 51t-20 31t-35 15t-50.5 4v28h237v-508q0 -11 1 -29t5.5 -34.5t14 -28.5t26.5 -12q30 0 62 12l10 -27l-209 -86h-35v148q-23 -25 -49 -51t-55.5 -47.5 t-62 -35.5t-68.5 -14q-56 0 -91 25t-54.5 64t-26 87t-6.5 93v309q0 34 -6 55t-20 32.5t-36.5 15.5t-54.5 4zM248 786l213 215q19 19 42 34t51 15q19 0 29.5 -14t10.5 -31q0 -26 -18 -44.5t-43 -34.5l-223 -140h-62z" />
<glyph unicode="&#xfb;" d="M0 662v28h244v-461q0 -30 4.5 -58t17 -50t35 -35.5t57.5 -13.5q25 0 49 9t46 23t41.5 31.5t35.5 34.5v391q0 31 -6.5 51t-20 31t-35 15t-50.5 4v28h237v-508q0 -11 1 -29t5.5 -34.5t14 -28.5t26.5 -12q30 0 62 12l10 -27l-209 -86h-35v148q-23 -25 -49 -51t-55.5 -47.5 t-62 -35.5t-68.5 -14q-56 0 -91 25t-54.5 64t-26 87t-6.5 93v309q0 34 -6 55t-20 32.5t-36.5 15.5t-54.5 4zM145 776l195 258h96l192 -258h-53l-188 160l-189 -160h-53z" />
<glyph unicode="&#xfc;" d="M0 662v28h244v-461q0 -30 4.5 -58t17 -50t35 -35.5t57.5 -13.5q25 0 49 9t46 23t41.5 31.5t35.5 34.5v391q0 31 -6.5 51t-20 31t-35 15t-50.5 4v28h237v-508q0 -11 1 -29t5.5 -34.5t14 -28.5t26.5 -12q30 0 62 12l10 -27l-209 -86h-35v148q-23 -25 -49 -51t-55.5 -47.5 t-62 -35.5t-68.5 -14q-56 0 -91 25t-54.5 64t-26 87t-6.5 93v309q0 34 -6 55t-20 32.5t-36.5 15.5t-54.5 4zM145 916q0 15 6.5 28.5t17 24t24 16.5t28.5 6q31 0 54.5 -22t23.5 -53q0 -16 -6.5 -30.5t-17 -25t-25 -16.5t-29.5 -6q-31 0 -53.5 23.5t-22.5 54.5zM452 916 q0 15 6.5 28.5t17.5 24t25 16.5t29 6q31 0 53.5 -22t22.5 -53q0 -16 -6 -30.5t-16.5 -25t-24.5 -16.5t-29 -6q-31 0 -54.5 23.5t-23.5 54.5z" />
<glyph unicode="&#xfd;" d="M8 662v28h324v-28q-15 0 -30 -1t-27.5 -5.5t-20.5 -14.5t-8 -29q0 -21 8.5 -42t17.5 -40l168 -348l154 383q6 14 11 28t5 28q0 15 -6.5 23.5t-17 12.5t-23 4.5t-24.5 0.5v28h225v-28q-24 -2 -39.5 -10.5t-26.5 -22t-19 -31.5t-17 -39l-281 -690q-15 -35 -37.5 -71.5 t-52.5 -65.5t-66 -47.5t-78 -18.5q-19 0 -37.5 5.5t-32.5 16.5t-23 27t-9 37q0 37 21 52.5t55 15.5q14 0 27.5 -4t27 -9.5t26.5 -9.5t25 -4q20 0 38 14.5t33.5 37t28.5 50t23.5 53.5t18 48t12.5 33l-248 520q-10 20 -21 39.5t-25.5 35t-34 25.5t-44.5 13zM281 786l213 215 q19 19 42 34t51 15q19 0 29.5 -14t10.5 -31q0 -26 -18 -44.5t-43 -34.5l-223 -140h-62z" />
<glyph unicode="&#xfe;" horiz-adv-x="773" d="M-6 -302q40 2 64 6.5t36.5 18t16.5 39.5t4 72v1048q0 16 -1.5 32.5t-7 30t-17.5 21.5t-33 8q-20 0 -49 -11l-8 25l212 85h28v-526q27 46 53.5 77t53.5 50t56 27.5t60 8.5q57 0 104.5 -26t81.5 -71.5t53 -107.5t19 -134q0 -81 -22.5 -152.5t-63.5 -124.5t-99.5 -84 t-130.5 -32q-23 0 -42.5 1.5t-38.5 7.5t-39 18.5t-45 34.5v-209q0 -41 3 -66t15 -39t35.5 -20t64.5 -8v-28h-363v28zM239 244q0 -42 2 -69t6 -42q5 -20 17 -39t31.5 -35t46 -25.5t59.5 -9.5q42 0 76 19t58 55t37 87t13 115q0 66 -13 121.5t-37 96t-58 63t-76 22.5 q-16 0 -30 -2t-31 -11.5t-41 -30t-60 -57.5v-258z" />
<glyph unicode="&#xff;" d="M8 662v28h324v-28q-15 0 -30 -1t-27.5 -5.5t-20.5 -14.5t-8 -29q0 -21 8.5 -42t17.5 -40l168 -348l154 383q6 14 11 28t5 28q0 15 -6.5 23.5t-17 12.5t-23 4.5t-24.5 0.5v28h225v-28q-24 -2 -39.5 -10.5t-26.5 -22t-19 -31.5t-17 -39l-281 -690q-15 -35 -37.5 -71.5 t-52.5 -65.5t-66 -47.5t-78 -18.5q-19 0 -37.5 5.5t-32.5 16.5t-23 27t-9 37q0 37 21 52.5t55 15.5q14 0 27.5 -4t27 -9.5t26.5 -9.5t25 -4q20 0 38 14.5t33.5 37t28.5 50t23.5 53.5t18 48t12.5 33l-248 520q-10 20 -21 39.5t-25.5 35t-34 25.5t-44.5 13zM178 916 q0 15 6.5 28.5t17 24t24 16.5t28.5 6q31 0 54.5 -22t23.5 -53q0 -16 -6.5 -30.5t-17 -25t-25 -16.5t-29.5 -6q-31 0 -53.5 23.5t-22.5 54.5zM485 916q0 15 6.5 28.5t17.5 24t25 16.5t29 6q31 0 53.5 -22t22.5 -53q0 -16 -6 -30.5t-16.5 -25t-24.5 -16.5t-29 -6 q-31 0 -54.5 23.5t-23.5 54.5z" />
<glyph unicode="&#x152;" horiz-adv-x="1374" d="M57 510q0 110 32 205t93.5 165.5t150.5 111t204 40.5q39 0 94.5 -5t126.5 -5h481l8 -223h-24q-11 54 -21.5 87t-30 51t-53.5 24t-92 6h-192v-402h135q79 0 119 31.5t40 114.5h31v-357h-31q-3 45 -11 74t-26 46.5t-47.5 24.5t-74.5 7h-135v-336q0 -38 4.5 -60.5t22 -34 t50.5 -15t90 -3.5q61 0 106 9.5t79.5 33t61 61.5t50.5 95h31l-82 -256h-493q-59 0 -118 -6t-118 -6q-109 0 -194.5 43.5t-145 115.5t-90.5 166.5t-31 196.5zM229 504q0 -49 6 -102t19.5 -104.5t36.5 -98t57 -81.5t80 -56t107 -21q54 0 84.5 15t45.5 42.5t19 67.5t4 90v530 q0 44 -4 80t-19 62t-45 40.5t-83 14.5q-63 0 -110.5 -21.5t-81.5 -58.5t-56.5 -85.5t-35.5 -101.5t-18.5 -108t-5.5 -104z" />
<glyph unicode="&#x153;" horiz-adv-x="1114" d="M51 334q0 73 20 141t60 120.5t100 84t140 31.5q72 0 132 -29.5t103 -89.5q37 57 89.5 88t121.5 31q61 0 107.5 -19t78 -53t47 -82t15.5 -105v-20h-414v-33q0 -48 10.5 -100.5t34.5 -95.5t63.5 -71t98.5 -28q37 0 65.5 13.5t51 36t38.5 52.5t27 62l25 -12 q-10 -52 -29 -102t-49.5 -89.5t-74.5 -63.5t-105 -24q-65 0 -119 32.5t-82 90.5q-45 -58 -106 -90.5t-135 -32.5q-77 0 -135.5 29t-98.5 78.5t-60 114t-20 135.5zM193 408q0 -29 3 -68.5t11 -81t22 -82t35 -72.5t51 -51.5t70 -19.5q51 0 81 24.5t46.5 62t21.5 82t5 83.5 q0 32 -2.5 73t-9.5 83.5t-20.5 83.5t-35.5 72.5t-53.5 51t-75.5 19.5q-51 0 -80.5 -26.5t-44.5 -66t-19.5 -85t-4.5 -82.5zM651 481h264q0 32 -6.5 64.5t-22 58.5t-41 42t-63.5 16q-35 0 -59.5 -17.5t-40 -44.5t-23 -59t-8.5 -60z" />
<glyph unicode="&#x178;" horiz-adv-x="1114" d="M14 995v27h437v-27q-16 0 -36.5 -2t-38.5 -8.5t-30 -20t-12 -36.5q0 -15 18.5 -51.5t47 -83t61.5 -97t61.5 -93t48 -71.5t21.5 -32l203 315q6 10 14 23t15 27.5t11.5 29.5t4.5 27q0 21 -10 35t-25 22.5t-33 12t-35 3.5v27h357v-27q-38 0 -66 -10t-51 -28.5t-43 -44.5 t-41 -59l-268 -419v-256q0 -47 5 -76t20 -45.5t43.5 -22t76.5 -5.5v-29h-434v29q48 0 76 6t42.5 22.5t18.5 45.5t4 75v242l-278 428q-16 25 -34.5 51t-40.5 47.5t-49 35t-61 13.5zM312 1246q0 15 6.5 28.5t17 24t24 16.5t28.5 6q31 0 54.5 -22t23.5 -53q0 -16 -6.5 -30.5 t-17 -25t-25 -16.5t-29.5 -6q-31 0 -53.5 23.5t-22.5 54.5zM619 1246q0 15 6.5 28.5t17.5 24t25 16.5t29 6q31 0 53.5 -22t22.5 -53q0 -16 -6 -30.5t-16.5 -25t-24.5 -16.5t-29 -6q-31 0 -54.5 23.5t-23.5 54.5z" />
<glyph unicode="&#x2c6;" horiz-adv-x="483" d="M0 786l195 258h96l192 -258h-53l-188 160l-189 -160h-53z" />
<glyph unicode="&#x2dc;" horiz-adv-x="514" d="M0 848q8 33 22 62t35 50t49.5 33t64.5 12q30 0 53 -10.5t45 -23.5t45 -23.5t53 -10.5q37 0 67.5 19.5t39.5 56.5h40q-3 -31 -17 -60.5t-36 -53t-50 -37.5t-61 -14q-42 0 -68 11t-48 24.5t-45.5 25t-60.5 11.5q-16 0 -31 -6.5t-27 -16.5t-20.5 -23t-9.5 -26h-40z" />
<glyph unicode="&#x2000;" horiz-adv-x="702" />
<glyph unicode="&#x2001;" horiz-adv-x="1404" />
<glyph unicode="&#x2002;" horiz-adv-x="702" />
<glyph unicode="&#x2003;" horiz-adv-x="1404" />
<glyph unicode="&#x2004;" horiz-adv-x="468" />
<glyph unicode="&#x2005;" horiz-adv-x="351" />
<glyph unicode="&#x2006;" horiz-adv-x="234" />
<glyph unicode="&#x2007;" horiz-adv-x="234" />
<glyph unicode="&#x2008;" horiz-adv-x="175" />
<glyph unicode="&#x2009;" horiz-adv-x="280" />
<glyph unicode="&#x200a;" horiz-adv-x="78" />
<glyph unicode="&#x2010;" horiz-adv-x="514" d="M61 238v114h390v-114h-390z" />
<glyph unicode="&#x2011;" horiz-adv-x="514" d="M61 238v114h390v-114h-390z" />
<glyph unicode="&#x2012;" horiz-adv-x="514" d="M61 238v114h390v-114h-390z" />
<glyph unicode="&#x2013;" horiz-adv-x="743" d="M-33 340v57h797v-57h-797z" />
<glyph unicode="&#x2014;" horiz-adv-x="1485" d="M0 340v57h1485v-57h-1485z" />
<glyph unicode="&#x2018;" horiz-adv-x="514" d="M139 805q0 48 14.5 86.5t40.5 68t62 50t80 34.5v-32q-21 -12 -43 -27.5t-41 -35t-31 -43t-12 -50.5q0 -7 1 -15t4 -14.5t9 -11t15 -4.5q14 0 27.5 6t29.5 6t30 -6.5t24 -18t16 -26t6 -29.5q0 -21 -8.5 -37t-22.5 -27.5t-32.5 -17.5t-37.5 -6q-29 0 -53 13t-41.5 34 t-27 48t-9.5 55z" />
<glyph unicode="&#x2019;" horiz-adv-x="514" d="M143 958q0 20 8.5 36t23 27t32.5 17t37 6q29 0 53 -13t41.5 -34t27 -47.5t9.5 -54.5q0 -48 -14.5 -86.5t-40.5 -67.5t-62 -50t-80 -36v33q21 12 43 28t41 35.5t31 42.5t12 50q0 7 -1 14.5t-4 14.5t-9 11.5t-15 4.5q-14 0 -27.5 -6t-29.5 -6q-32 0 -54 24.5t-22 56.5z" />
<glyph unicode="&#x201a;" horiz-adv-x="514" d="M145 61q0 21 8.5 37.5t23 28t32.5 17.5t37 6q29 0 53 -13.5t41 -34.5t26 -48t9 -54q0 -48 -14.5 -86.5t-40 -68t-61.5 -50.5t-79 -35v31q21 12 43 28.5t40.5 36t30 43t11.5 50.5q0 14 -4 29.5t-22 15.5q-16 0 -30 -6t-28 -6q-16 0 -30 6.5t-24 17.5t-16 25.5t-6 29.5z " />
<glyph unicode="&#x201c;" horiz-adv-x="786" d="M51 807q0 48 14.5 86.5t40 68t61.5 51t79 36.5v-33q-21 -12 -43 -28t-40.5 -35.5t-30 -42.5t-11.5 -50q0 -15 4.5 -31t24.5 -16q14 0 27.5 6t27.5 6q16 0 30 -6.5t24 -18t16 -26t6 -29.5q0 -20 -8.5 -36t-23 -27.5t-32.5 -18t-37 -6.5q-29 0 -53 13.5t-41 34.5t-26 48 t-9 54zM412 807q0 48 14.5 86t40 67t61.5 50.5t80 36.5v-33q-21 -12 -43 -28t-41 -35.5t-31 -42.5t-12 -50q0 -7 1 -15t4 -14.5t9 -11t15 -4.5q14 0 27.5 5t27.5 5q32 0 54 -24t22 -56q0 -20 -8.5 -36t-22 -27.5t-31.5 -18t-36 -6.5q-30 0 -54 13.5t-41.5 35t-26.5 48.5 t-9 55z" />
<glyph unicode="&#x201d;" horiz-adv-x="786" d="M143 958q0 20 8.5 36t23 27t32.5 17t37 6q29 0 53 -13t41.5 -34t27 -47.5t9.5 -54.5q0 -48 -14.5 -86.5t-40.5 -67.5t-62 -50t-80 -36v33q21 12 43 28t41 35.5t31 42.5t12 50q0 7 -1 14.5t-4 14.5t-9 11.5t-15 4.5q-14 0 -27.5 -6t-29.5 -6q-32 0 -54 24.5t-22 56.5z M506 956q0 21 8 37.5t21.5 27.5t31.5 17t37 6q29 0 53 -13t41.5 -34.5t27 -48.5t9.5 -55q0 -48 -14.5 -86t-40 -67t-62 -50.5t-79.5 -36.5v33q21 12 43 28t41 35.5t31 42.5t12 50q0 7 -1 15t-4 15t-9 12t-15 5q-14 0 -28 -6t-29 -6q-32 0 -53 23.5t-21 55.5z" />
<glyph unicode="&#x201e;" horiz-adv-x="684" d="M51 61q0 42 30 65.5t69 23.5q30 0 54 -13.5t41 -34.5t26.5 -48t9.5 -54q0 -48 -14.5 -86.5t-40.5 -68t-62 -50.5t-80 -35v31q21 12 43 28.5t41 36t31 43t12 50.5q0 7 -1 14.5t-4 14.5t-9 11.5t-15 4.5q-14 0 -27.5 -6t-27.5 -6q-34 0 -55 24t-21 55zM412 61q0 20 8 36.5 t21.5 28t31.5 18t37 6.5q30 0 54 -13.5t41.5 -35t26.5 -48.5t9 -55q0 -48 -14.5 -86t-40 -67t-61.5 -50.5t-79 -36.5v33q20 12 42 28t40.5 35.5t30.5 42.5t12 50q0 14 -5 29.5t-23 15.5q-14 0 -28 -5t-28 -5q-32 0 -53.5 23.5t-21.5 55.5z" />
<glyph unicode="&#x2022;" horiz-adv-x="446" d="M51 506q0 35 13.5 66t36.5 54t54.5 36.5t67.5 13.5q35 0 66 -13.5t54 -36.5t36.5 -54t13.5 -66q0 -36 -13.5 -67.5t-36.5 -54.5t-54 -36.5t-66 -13.5q-36 0 -67.5 13.5t-54.5 36.5t-36.5 54.5t-13.5 67.5z" />
<glyph unicode="&#x2026;" horiz-adv-x="1546" d="M176 63q0 36 23.5 60t58.5 24t59.5 -24t24.5 -60q0 -35 -23.5 -60.5t-60.5 -25.5t-59.5 25.5t-22.5 60.5zM688 63q0 36 24.5 60t59.5 24t59.5 -24t24.5 -60q0 -35 -24.5 -60.5t-59.5 -25.5q-37 0 -60.5 25.5t-23.5 60.5zM1206 63q0 36 23.5 60t58.5 24t59.5 -24t24.5 -60 q0 -35 -23.5 -60.5t-60.5 -25.5t-59.5 25.5t-22.5 60.5z" />
<glyph unicode="&#x202f;" horiz-adv-x="280" />
<glyph unicode="&#x2039;" horiz-adv-x="514" d="M90 350l291 355h41l-184 -355l184 -356h-41z" />
<glyph unicode="&#x203a;" horiz-adv-x="514" d="M92 -6l184 354l-184 357h41l291 -357l-291 -354h-41z" />
<glyph unicode="&#x205f;" horiz-adv-x="351" />
<glyph unicode="&#x20ac;" horiz-adv-x="950" d="M0 551l31 74h86q17 90 56.5 167t99 133t136 87.5t166.5 31.5q46 0 80 -11t57 -23.5t35 -23.5t15 -11q15 0 34.5 13.5t30.5 55.5h27l18 -296h-22q-15 49 -40.5 93t-59 77.5t-74.5 53t-88 19.5q-78 0 -132.5 -30t-90 -81t-54.5 -117t-26 -138h481l-31 -74h-457 q-2 -12 -2 -24.5v-24.5v-24.5t2 -24.5h431l-31 -74h-393q10 -72 33.5 -133.5t63 -106.5t96 -70.5t132.5 -25.5q86 0 147.5 47t114.5 125l23 -16q-32 -56 -63.5 -97.5t-70.5 -70t-89.5 -42.5t-118.5 -14q-84 0 -157 30t-130 83.5t-96 127.5t-55 163h-113l31 74h73 q-2 11 -2 23.5v24.5v24.5t2 25.5h-106z" />
<glyph unicode="&#x2122;" horiz-adv-x="1513" d="M25 872l10 150h557l12 -150h-26q-4 38 -21.5 59t-44.5 31.5t-62 12.5t-75 2v-436q0 -29 3 -48.5t12 -31t25 -16.5t42 -5v-26h-285v26q23 0 37.5 5t23 16.5t12 31t3.5 48.5v436h-55q-33 0 -57 -4.5t-41 -16t-28.5 -32t-19.5 -52.5h-22zM655 414v26q30 0 47 4t26 15 t11 30.5t2 51.5v358q0 27 -2 45.5t-10.5 29.5t-25.5 16t-48 5v27h217l205 -430l201 430h209v-27q-27 0 -43.5 -5.5t-25.5 -18t-12 -32t-3 -46.5v-352q0 -27 3 -46t12 -31.5t25.5 -18t43.5 -5.5v-26h-299v26q29 0 47 5t27.5 16.5t12.5 30.5t3 47v372l-234 -497h-22l-234 489 v-362q0 -32 3.5 -52t14 -31t30 -14.5t51.5 -3.5v-26h-232z" />
<glyph unicode="&#x25fc;" horiz-adv-x="690" d="M0 0v690h690v-690h-690z" />
</font>
</defs>
</svg>
